<?xml version="1.0" encoding="utf-8"?>
<svg version="1.1" xmlns:xlink="http://www.w3.org/1999/xlink" width="12px" height="12px" xmlns="http://www.w3.org/2000/svg">
  <g transform="matrix(1 0 0 1 -28 -283 )">
    <path d="M 34 283  C 37.36 283  40 285.64  40 289  C 40 292.36  37.36 295  34 295  C 30.64 295  28 292.36  28 289  C 28 285.64  30.64 283  34 283  Z " fill-rule="nonzero" fill="#ffffff" stroke="none" />
    <path d="M 34 283.5  C 37.08 283.5  39.5 285.92  39.5 289  C 39.5 292.08  37.08 294.5  34 294.5  C 30.92 294.5  28.5 292.08  28.5 289  C 28.5 285.92  30.92 283.5  34 283.5  Z " stroke-width="1" stroke="#409eff" fill="none" />
  </g>
</svg>