<?xml version="1.0" encoding="utf-8"?>
<svg version="1.1" xmlns:xlink="http://www.w3.org/1999/xlink" width="12px" height="12px" xmlns="http://www.w3.org/2000/svg">
  <g transform="matrix(1 0 0 1 -28 -283 )">
    <path d="M 34 287  C 35.12 287  36 287.88  36 289  C 36 290.12  35.12 291  34 291  C 32.88 291  32 290.12  32 289  C 32 287.88  32.88 287  34 287  Z " fill-rule="nonzero" fill="#ffffff" stroke="none" />
    <path d="M 34 285.5  C 35.96 285.5  37.5 287.04  37.5 289  C 37.5 290.96  35.96 292.5  34 292.5  C 32.04 292.5  30.5 290.96  30.5 289  C 30.5 287.04  32.04 285.5  34 285.5  Z " stroke-width="5" stroke="#409eff" fill="none" />
  </g>
</svg>