<?xml version="1.0" encoding="utf-8"?>
<svg version="1.1" xmlns:xlink="http://www.w3.org/1999/xlink" width="8px" height="8px" xmlns="http://www.w3.org/2000/svg">
  <g transform="matrix(1 0 0 1 -921 -1968 )">
    <path d="M 925 1969  C 926.68 1969  928 1970.32  928 1972  C 928 1973.68  926.68 1975  925 1975  C 923.32 1975  922 1973.68  922 1972  C 922 1970.32  923.32 1969  925 1969  Z " fill-rule="nonzero" fill="#ffffff" stroke="none" />
    <path d="M 925 1969  C 926.68 1969  928 1970.32  928 1972  C 928 1973.68  926.68 1975  925 1975  C 923.32 1975  922 1973.68  922 1972  C 922 1970.32  923.32 1969  925 1969  Z " stroke-width="2" stroke="#808bc6" fill="none" />
  </g>
</svg>