<?xml version="1.0" encoding="utf-8"?>
<svg version="1.1" xmlns:xlink="http://www.w3.org/1999/xlink" width="8px" height="8px" xmlns="http://www.w3.org/2000/svg">
  <g transform="matrix(1 0 0 1 -921 -1906 )">
    <path d="M 925 1907  C 926.68 1907  928 1908.32  928 1910  C 928 1911.68  926.68 1913  925 1913  C 923.32 1913  922 1911.68  922 1910  C 922 1908.32  923.32 1907  925 1907  Z " fill-rule="nonzero" fill="#ffffff" stroke="none" />
    <path d="M 925 1907  C 926.68 1907  928 1908.32  928 1910  C 928 1911.68  926.68 1913  925 1913  C 923.32 1913  922 1911.68  922 1910  C 922 1908.32  923.32 1907  925 1907  Z " stroke-width="2" stroke="#2db7f5" fill="none" />
  </g>
</svg>