<?xml version="1.0" encoding="utf-8"?>
<svg version="1.1" xmlns:xlink="http://www.w3.org/1999/xlink" width="331px" height="104px" xmlns="http://www.w3.org/2000/svg">
  <g transform="matrix(1 0 0 1 -191 -85 )">
    <path d="M 192 89  A 3 3 0 0 1 195 86 L 518 86  A 3 3 0 0 1 521 89 L 521 185  A 3 3 0 0 1 518 188 L 195 188  A 3 3 0 0 1 192 185 L 192 89  Z " fill-rule="nonzero" fill="#000000" stroke="none" fill-opacity="0.0196078431372549" />
    <path d="M 191.5 89  A 3.5 3.5 0 0 1 195 85.5 L 518 85.5  A 3.5 3.5 0 0 1 521.5 89 L 521.5 185  A 3.5 3.5 0 0 1 518 188.5 L 195 188.5  A 3.5 3.5 0 0 1 191.5 185 L 191.5 89  Z " stroke-width="1" stroke-dasharray="9,4" stroke="#d9d9d9" fill="none" stroke-dashoffset="0.5" />
  </g>
</svg>