<?xml version="1.0" encoding="utf-8"?>
<svg version="1.1" xmlns:xlink="http://www.w3.org/1999/xlink" width="70px" height="25px" xmlns="http://www.w3.org/2000/svg">
  <g transform="matrix(1 0 0 1 -128 -634 )">
    <path d="M 129 642  A 7 7 0 0 1 136 635 L 190 635  A 7 7 0 0 1 197 642 L 197 651  A 7 7 0 0 1 190 658 L 136 658  A 7 7 0 0 1 129 651 L 129 642  Z " fill-rule="nonzero" fill="#81d3f8" stroke="none" fill-opacity="0.168627450980392" />
    <path d="M 128.5 642  A 7.5 7.5 0 0 1 136 634.5 L 190 634.5  A 7.5 7.5 0 0 1 197.5 642 L 197.5 651  A 7.5 7.5 0 0 1 190 658.5 L 136 658.5  A 7.5 7.5 0 0 1 128.5 651 L 128.5 642  Z " stroke-width="1" stroke="#0079fe" fill="none" stroke-opacity="0.654901960784314" />
  </g>
</svg>