<?xml version="1.0" encoding="utf-8"?>
<svg version="1.1" xmlns:xlink="http://www.w3.org/1999/xlink" width="14px" height="14px" xmlns="http://www.w3.org/2000/svg">
  <g transform="matrix(1 0 0 1 -425 -130 )">
    <path d="M 432 131  C 435.36 131  438 133.64  438 137  C 438 140.36  435.36 143  432 143  C 428.64 143  426 140.36  426 137  C 426 133.64  428.64 131  432 131  Z " fill-rule="nonzero" fill="#0d0d51" stroke="none" />
    <path d="M 432 131  C 435.36 131  438 133.64  438 137  C 438 140.36  435.36 143  432 143  C 428.64 143  426 140.36  426 137  C 426 133.64  428.64 131  432 131  Z " stroke-width="2" stroke="#ffffff" fill="none" />
  </g>
</svg>