<?xml version="1.0" encoding="utf-8"?>
<svg version="1.1" xmlns:xlink="http://www.w3.org/1999/xlink" width="70px" height="25px" xmlns="http://www.w3.org/2000/svg">
  <g transform="matrix(1 0 0 1 -199 -591 )">
    <path d="M 200 599  A 7 7 0 0 1 207 592 L 261 592  A 7 7 0 0 1 268 599 L 268 608  A 7 7 0 0 1 261 615 L 207 615  A 7 7 0 0 1 200 608 L 200 599  Z " fill-rule="nonzero" fill="#81d3f8" stroke="none" fill-opacity="0.168627450980392" />
    <path d="M 199.5 599  A 7.5 7.5 0 0 1 207 591.5 L 261 591.5  A 7.5 7.5 0 0 1 268.5 599 L 268.5 608  A 7.5 7.5 0 0 1 261 615.5 L 207 615.5  A 7.5 7.5 0 0 1 199.5 608 L 199.5 599  Z " stroke-width="1" stroke="#0079fe" fill="none" stroke-opacity="0.654901960784314" />
  </g>
</svg>