<?xml version="1.0" encoding="utf-8"?>
<svg version="1.1" xmlns:xlink="http://www.w3.org/1999/xlink" width="12px" height="12px" viewBox="1008 1418  12 12" xmlns="http://www.w3.org/2000/svg">
  <path d="M 1014 1418  C 1017.36 1418  1020 1420.64  1020 1424  C 1020 1427.36  1017.36 1430  1014 1430  C 1010.64 1430  1008 1427.36  1008 1424  C 1008 1420.64  1010.64 1418  1014 1418  Z " fill-rule="nonzero" fill="#f0f0f0" stroke="none" />
  <path d="M 1014 1418.5  C 1017.08 1418.5  1019.5 1420.92  1019.5 1424  C 1019.5 1427.08  1017.08 1429.5  1014 1429.5  C 1010.92 1429.5  1008.5 1427.08  1008.5 1424  C 1008.5 1420.92  1010.92 1418.5  1014 1418.5  Z " stroke-width="1" stroke="#797979" fill="none" />
  <path d="M 1014 1427  C 1012.32 1427  1011 1425.68  1011 1424  C 1011 1422.32  1012.32 1421  1014 1421  C 1015.68 1421  1017 1422.32  1017 1424  C 1017 1425.68  1015.68 1427  1014 1427  " fill-rule="nonzero" fill="#797979" stroke="none" />
</svg>