<?xml version="1.0" encoding="utf-8"?>
<svg version="1.1" xmlns:xlink="http://www.w3.org/1999/xlink" width="12px" height="12px" viewBox="1090 1418  12 12" xmlns="http://www.w3.org/2000/svg">
  <path d="M 1096 1418  C 1099.36 1418  1102 1420.64  1102 1424  C 1102 1427.36  1099.36 1430  1096 1430  C 1092.64 1430  1090 1427.36  1090 1424  C 1090 1420.64  1092.64 1418  1096 1418  Z " fill-rule="nonzero" fill="#f0f0f0" stroke="none" />
  <path d="M 1096 1418.5  C 1099.08 1418.5  1101.5 1420.92  1101.5 1424  C 1101.5 1427.08  1099.08 1429.5  1096 1429.5  C 1092.92 1429.5  1090.5 1427.08  1090.5 1424  C 1090.5 1420.92  1092.92 1418.5  1096 1418.5  Z " stroke-width="1" stroke="#797979" fill="none" />
  <path d="M 1096 1427  C 1094.32 1427  1093 1425.68  1093 1424  C 1093 1422.32  1094.32 1421  1096 1421  C 1097.68 1421  1099 1422.32  1099 1424  C 1099 1425.68  1097.68 1427  1096 1427  " fill-rule="nonzero" fill="#797979" stroke="none" />
</svg>