<?xml version="1.0" encoding="utf-8"?>
<svg version="1.1" xmlns:xlink="http://www.w3.org/1999/xlink" width="12px" height="12px" viewBox="483 1359  12 12" xmlns="http://www.w3.org/2000/svg">
  <path d="M 489 1359  C 492.36 1359  495 1361.64  495 1365  C 495 1368.36  492.36 1371  489 1371  C 485.64 1371  483 1368.36  483 1365  C 483 1361.64  485.64 1359  489 1359  Z " fill-rule="nonzero" fill="#f0f0f0" stroke="none" />
  <path d="M 489 1359.5  C 492.08 1359.5  494.5 1361.92  494.5 1365  C 494.5 1368.08  492.08 1370.5  489 1370.5  C 485.92 1370.5  483.5 1368.08  483.5 1365  C 483.5 1361.92  485.92 1359.5  489 1359.5  Z " stroke-width="1" stroke="#797979" fill="none" />
  <path d="M 489 1368  C 487.32 1368  486 1366.68  486 1365  C 486 1363.32  487.32 1362  489 1362  C 490.68 1362  492 1363.32  492 1365  C 492 1366.68  490.68 1368  489 1368  " fill-rule="nonzero" fill="#797979" stroke="none" />
</svg>