<?xml version="1.0" encoding="utf-8"?>
<svg version="1.1" xmlns:xlink="http://www.w3.org/1999/xlink" width="12px" height="12px" viewBox="565 1359  12 12" xmlns="http://www.w3.org/2000/svg">
  <path d="M 571 1359  C 574.36 1359  577 1361.64  577 1365  C 577 1368.36  574.36 1371  571 1371  C 567.64 1371  565 1368.36  565 1365  C 565 1361.64  567.64 1359  571 1359  Z " fill-rule="nonzero" fill="#ffffff" stroke="none" />
  <path d="M 571 1359.5  C 574.08 1359.5  576.5 1361.92  576.5 1365  C 576.5 1368.08  574.08 1370.5  571 1370.5  C 567.92 1370.5  565.5 1368.08  565.5 1365  C 565.5 1361.92  567.92 1359.5  571 1359.5  Z " stroke-width="1" stroke="#797979" fill="none" />
  <path d="M 571 1368  C 569.32 1368  568 1366.68  568 1365  C 568 1363.32  569.32 1362  571 1362  C 572.68 1362  574 1363.32  574 1365  C 574 1366.68  572.68 1368  571 1368  " fill-rule="nonzero" fill="#797979" stroke="none" />
</svg>