<?xml version="1.0" encoding="utf-8"?>
<svg version="1.1" xmlns:xlink="http://www.w3.org/1999/xlink" width="12px" height="12px" viewBox="568 1750  12 12" xmlns="http://www.w3.org/2000/svg">
  <path d="M 574 1750  C 577.36 1750  580 1752.64  580 1756  C 580 1759.36  577.36 1762  574 1762  C 570.64 1762  568 1759.36  568 1756  C 568 1752.64  570.64 1750  574 1750  Z " fill-rule="nonzero" fill="#f0f0f0" stroke="none" />
  <path d="M 574 1750.5  C 577.08 1750.5  579.5 1752.92  579.5 1756  C 579.5 1759.08  577.08 1761.5  574 1761.5  C 570.92 1761.5  568.5 1759.08  568.5 1756  C 568.5 1752.92  570.92 1750.5  574 1750.5  Z " stroke-width="1" stroke="#797979" fill="none" />
  <path d="M 574 1759  C 572.32 1759  571 1757.68  571 1756  C 571 1754.32  572.32 1753  574 1753  C 575.68 1753  577 1754.32  577 1756  C 577 1757.68  575.68 1759  574 1759  " fill-rule="nonzero" fill="#797979" stroke="none" />
</svg>