<?xml version="1.0" encoding="utf-8"?>
<svg version="1.1" xmlns:xlink="http://www.w3.org/1999/xlink" width="12px" height="12px" viewBox="1185 1457  12 12" xmlns="http://www.w3.org/2000/svg">
  <path d="M 1191 1457  C 1194.36 1457  1197 1459.64  1197 1463  C 1197 1466.36  1194.36 1469  1191 1469  C 1187.64 1469  1185 1466.36  1185 1463  C 1185 1459.64  1187.64 1457  1191 1457  Z " fill-rule="nonzero" fill="#ffffff" stroke="none" />
  <path d="M 1191 1457.5  C 1194.08 1457.5  1196.5 1459.92  1196.5 1463  C 1196.5 1466.08  1194.08 1468.5  1191 1468.5  C 1187.92 1468.5  1185.5 1466.08  1185.5 1463  C 1185.5 1459.92  1187.92 1457.5  1191 1457.5  Z " stroke-width="1" stroke="#797979" fill="none" />
  <path d="M 1191 1466  C 1189.32 1466  1188 1464.68  1188 1463  C 1188 1461.32  1189.32 1460  1191 1460  C 1192.68 1460  1194 1461.32  1194 1463  C 1194 1464.68  1192.68 1466  1191 1466  " fill-rule="nonzero" fill="#797979" stroke="none" />
</svg>