<?xml version="1.0" encoding="utf-8"?>
<svg version="1.1" xmlns:xlink="http://www.w3.org/1999/xlink" width="12px" height="12px" viewBox="1267 1457  12 12" xmlns="http://www.w3.org/2000/svg">
  <path d="M 1273 1457  C 1276.36 1457  1279 1459.64  1279 1463  C 1279 1466.36  1276.36 1469  1273 1469  C 1269.64 1469  1267 1466.36  1267 1463  C 1267 1459.64  1269.64 1457  1273 1457  Z " fill-rule="nonzero" fill="#f0f0f0" stroke="none" />
  <path d="M 1273 1457.5  C 1276.08 1457.5  1278.5 1459.92  1278.5 1463  C 1278.5 1466.08  1276.08 1468.5  1273 1468.5  C 1269.92 1468.5  1267.5 1466.08  1267.5 1463  C 1267.5 1459.92  1269.92 1457.5  1273 1457.5  Z " stroke-width="1" stroke="#797979" fill="none" />
  <path d="M 1273 1466  C 1271.32 1466  1270 1464.68  1270 1463  C 1270 1461.32  1271.32 1460  1273 1460  C 1274.68 1460  1276 1461.32  1276 1463  C 1276 1464.68  1274.68 1466  1273 1466  " fill-rule="nonzero" fill="#797979" stroke="none" />
</svg>