<?xml version="1.0" encoding="utf-8"?>
<svg version="1.1" xmlns:xlink="http://www.w3.org/1999/xlink" width="12px" height="12px" viewBox="1188 1269  12 12" xmlns="http://www.w3.org/2000/svg">
  <path d="M 1194 1269  C 1197.36 1269  1200 1271.64  1200 1275  C 1200 1278.36  1197.36 1281  1194 1281  C 1190.64 1281  1188 1278.36  1188 1275  C 1188 1271.64  1190.64 1269  1194 1269  Z " fill-rule="nonzero" fill="#ffffff" stroke="none" />
  <path d="M 1194 1269.5  C 1197.08 1269.5  1199.5 1271.92  1199.5 1275  C 1199.5 1278.08  1197.08 1280.5  1194 1280.5  C 1190.92 1280.5  1188.5 1278.08  1188.5 1275  C 1188.5 1271.92  1190.92 1269.5  1194 1269.5  Z " stroke-width="1" stroke="#797979" fill="none" />
  <path d="M 1194 1278  C 1192.32 1278  1191 1276.68  1191 1275  C 1191 1273.32  1192.32 1272  1194 1272  C 1195.68 1272  1197 1273.32  1197 1275  C 1197 1276.68  1195.68 1278  1194 1278  " fill-rule="nonzero" fill="#797979" stroke="none" />
</svg>