<?xml version="1.0" encoding="utf-8"?>
<svg version="1.1" xmlns:xlink="http://www.w3.org/1999/xlink" width="12px" height="12px" viewBox="1270 1269  12 12" xmlns="http://www.w3.org/2000/svg">
  <path d="M 1276 1269  C 1279.36 1269  1282 1271.64  1282 1275  C 1282 1278.36  1279.36 1281  1276 1281  C 1272.64 1281  1270 1278.36  1270 1275  C 1270 1271.64  1272.64 1269  1276 1269  Z " fill-rule="nonzero" fill="#ffffff" stroke="none" />
  <path d="M 1276 1269.5  C 1279.08 1269.5  1281.5 1271.92  1281.5 1275  C 1281.5 1278.08  1279.08 1280.5  1276 1280.5  C 1272.92 1280.5  1270.5 1278.08  1270.5 1275  C 1270.5 1271.92  1272.92 1269.5  1276 1269.5  Z " stroke-width="1" stroke="#797979" fill="none" />
  <path d="M 1276 1278  C 1274.32 1278  1273 1276.68  1273 1275  C 1273 1273.32  1274.32 1272  1276 1272  C 1277.68 1272  1279 1273.32  1279 1275  C 1279 1276.68  1277.68 1278  1276 1278  " fill-rule="nonzero" fill="#797979" stroke="none" />
</svg>