<?xml version="1.0" encoding="utf-8"?>
<svg version="1.1" xmlns:xlink="http://www.w3.org/1999/xlink" width="12px" height="12px" viewBox="483 1230  12 12" xmlns="http://www.w3.org/2000/svg">
  <path d="M 489 1230  C 492.36 1230  495 1232.64  495 1236  C 495 1239.36  492.36 1242  489 1242  C 485.64 1242  483 1239.36  483 1236  C 483 1232.64  485.64 1230  489 1230  Z " fill-rule="nonzero" fill="#ffffff" stroke="none" />
  <path d="M 489 1230.5  C 492.08 1230.5  494.5 1232.92  494.5 1236  C 494.5 1239.08  492.08 1241.5  489 1241.5  C 485.92 1241.5  483.5 1239.08  483.5 1236  C 483.5 1232.92  485.92 1230.5  489 1230.5  Z " stroke-width="1" stroke="#797979" fill="none" />
  <path d="M 489 1239  C 487.32 1239  486 1237.68  486 1236  C 486 1234.32  487.32 1233  489 1233  C 490.68 1233  492 1234.32  492 1236  C 492 1237.68  490.68 1239  489 1239  " fill-rule="nonzero" fill="#797979" stroke="none" />
</svg>