<?xml version="1.0" encoding="utf-8"?>
<svg version="1.1" xmlns:xlink="http://www.w3.org/1999/xlink" width="12px" height="12px" viewBox="660 1269  12 12" xmlns="http://www.w3.org/2000/svg">
  <path d="M 666 1269  C 669.36 1269  672 1271.64  672 1275  C 672 1278.36  669.36 1281  666 1281  C 662.64 1281  660 1278.36  660 1275  C 660 1271.64  662.64 1269  666 1269  Z " fill-rule="nonzero" fill="#f0f0f0" stroke="none" />
  <path d="M 666 1269.5  C 669.08 1269.5  671.5 1271.92  671.5 1275  C 671.5 1278.08  669.08 1280.5  666 1280.5  C 662.92 1280.5  660.5 1278.08  660.5 1275  C 660.5 1271.92  662.92 1269.5  666 1269.5  Z " stroke-width="1" stroke="#797979" fill="none" />
  <path d="M 666 1278  C 664.32 1278  663 1276.68  663 1275  C 663 1273.32  664.32 1272  666 1272  C 667.68 1272  669 1273.32  669 1275  C 669 1276.68  667.68 1278  666 1278  " fill-rule="nonzero" fill="#797979" stroke="none" />
</svg>