<?xml version="1.0" encoding="utf-8"?>
<svg version="1.1" xmlns:xlink="http://www.w3.org/1999/xlink" width="12px" height="12px" viewBox="742 1269  12 12" xmlns="http://www.w3.org/2000/svg">
  <path d="M 748 1269  C 751.36 1269  754 1271.64  754 1275  C 754 1278.36  751.36 1281  748 1281  C 744.64 1281  742 1278.36  742 1275  C 742 1271.64  744.64 1269  748 1269  Z " fill-rule="nonzero" fill="#f0f0f0" stroke="none" />
  <path d="M 748 1269.5  C 751.08 1269.5  753.5 1271.92  753.5 1275  C 753.5 1278.08  751.08 1280.5  748 1280.5  C 744.92 1280.5  742.5 1278.08  742.5 1275  C 742.5 1271.92  744.92 1269.5  748 1269.5  Z " stroke-width="1" stroke="#797979" fill="none" />
  <path d="M 748 1278  C 746.32 1278  745 1276.68  745 1275  C 745 1273.32  746.32 1272  748 1272  C 749.68 1272  751 1273.32  751 1275  C 751 1276.68  749.68 1278  748 1278  " fill-rule="nonzero" fill="#797979" stroke="none" />
</svg>