<?xml version="1.0" encoding="utf-8"?>
<svg version="1.1" xmlns:xlink="http://www.w3.org/1999/xlink" width="12px" height="12px" viewBox="660 1398  12 12" xmlns="http://www.w3.org/2000/svg">
  <path d="M 666 1398  C 669.36 1398  672 1400.64  672 1404  C 672 1407.36  669.36 1410  666 1410  C 662.64 1410  660 1407.36  660 1404  C 660 1400.64  662.64 1398  666 1398  Z " fill-rule="nonzero" fill="#f0f0f0" stroke="none" />
  <path d="M 666 1398.5  C 669.08 1398.5  671.5 1400.92  671.5 1404  C 671.5 1407.08  669.08 1409.5  666 1409.5  C 662.92 1409.5  660.5 1407.08  660.5 1404  C 660.5 1400.92  662.92 1398.5  666 1398.5  Z " stroke-width="1" stroke="#797979" fill="none" />
  <path d="M 666 1407  C 664.32 1407  663 1405.68  663 1404  C 663 1402.32  664.32 1401  666 1401  C 667.68 1401  669 1402.32  669 1404  C 669 1405.68  667.68 1407  666 1407  " fill-rule="nonzero" fill="#797979" stroke="none" />
</svg>