<?xml version="1.0" encoding="utf-8"?>
<svg version="1.1" xmlns:xlink="http://www.w3.org/1999/xlink" width="12px" height="12px" viewBox="742 1398  12 12" xmlns="http://www.w3.org/2000/svg">
  <path d="M 748 1398  C 751.36 1398  754 1400.64  754 1404  C 754 1407.36  751.36 1410  748 1410  C 744.64 1410  742 1407.36  742 1404  C 742 1400.64  744.64 1398  748 1398  Z " fill-rule="nonzero" fill="#ffffff" stroke="none" />
  <path d="M 748 1398.5  C 751.08 1398.5  753.5 1400.92  753.5 1404  C 753.5 1407.08  751.08 1409.5  748 1409.5  C 744.92 1409.5  742.5 1407.08  742.5 1404  C 742.5 1400.92  744.92 1398.5  748 1398.5  Z " stroke-width="1" stroke="#797979" fill="none" />
  <path d="M 748 1407  C 746.32 1407  745 1405.68  745 1404  C 745 1402.32  746.32 1401  748 1401  C 749.68 1401  751 1402.32  751 1404  C 751 1405.68  749.68 1407  748 1407  " fill-rule="nonzero" fill="#797979" stroke="none" />
</svg>