<?xml version="1.0" encoding="utf-8"?>
<svg version="1.1" xmlns:xlink="http://www.w3.org/1999/xlink" width="12px" height="12px" viewBox="663 1789  12 12" xmlns="http://www.w3.org/2000/svg">
  <path d="M 669 1789  C 672.36 1789  675 1791.64  675 1795  C 675 1798.36  672.36 1801  669 1801  C 665.64 1801  663 1798.36  663 1795  C 663 1791.64  665.64 1789  669 1789  Z " fill-rule="nonzero" fill="#ffffff" stroke="none" />
  <path d="M 669 1789.5  C 672.08 1789.5  674.5 1791.92  674.5 1795  C 674.5 1798.08  672.08 1800.5  669 1800.5  C 665.92 1800.5  663.5 1798.08  663.5 1795  C 663.5 1791.92  665.92 1789.5  669 1789.5  Z " stroke-width="1" stroke="#797979" fill="none" />
  <path d="M 669 1798  C 667.32 1798  666 1796.68  666 1795  C 666 1793.32  667.32 1792  669 1792  C 670.68 1792  672 1793.32  672 1795  C 672 1796.68  670.68 1798  669 1798  " fill-rule="nonzero" fill="#797979" stroke="none" />
</svg>