<?xml version="1.0" encoding="utf-8"?>
<svg version="1.1" xmlns:xlink="http://www.w3.org/1999/xlink" width="12px" height="12px" viewBox="486 1750  12 12" xmlns="http://www.w3.org/2000/svg">
  <path d="M 492 1750  C 495.36 1750  498 1752.64  498 1756  C 498 1759.36  495.36 1762  492 1762  C 488.64 1762  486 1759.36  486 1756  C 486 1752.64  488.64 1750  492 1750  Z " fill-rule="nonzero" fill="#ffffff" stroke="none" />
  <path d="M 492 1750.5  C 495.08 1750.5  497.5 1752.92  497.5 1756  C 497.5 1759.08  495.08 1761.5  492 1761.5  C 488.92 1761.5  486.5 1759.08  486.5 1756  C 486.5 1752.92  488.92 1750.5  492 1750.5  Z " stroke-width="1" stroke="#797979" fill="none" />
  <path d="M 492 1759  C 490.32 1759  489 1757.68  489 1756  C 489 1754.32  490.32 1753  492 1753  C 493.68 1753  495 1754.32  495 1756  C 495 1757.68  493.68 1759  492 1759  " fill-rule="nonzero" fill="#797979" stroke="none" />
</svg>