<?xml version="1.0" encoding="utf-8"?>
<svg version="1.1" xmlns:xlink="http://www.w3.org/1999/xlink" width="12px" height="12px" viewBox="1188 1790  12 12" xmlns="http://www.w3.org/2000/svg">
  <path d="M 1194 1790  C 1197.36 1790  1200 1792.64  1200 1796  C 1200 1799.36  1197.36 1802  1194 1802  C 1190.64 1802  1188 1799.36  1188 1796  C 1188 1792.64  1190.64 1790  1194 1790  Z " fill-rule="nonzero" fill="#ffffff" stroke="none" />
  <path d="M 1194 1790.5  C 1197.08 1790.5  1199.5 1792.92  1199.5 1796  C 1199.5 1799.08  1197.08 1801.5  1194 1801.5  C 1190.92 1801.5  1188.5 1799.08  1188.5 1796  C 1188.5 1792.92  1190.92 1790.5  1194 1790.5  Z " stroke-width="1" stroke="#797979" fill="none" />
  <path d="M 1194 1799  C 1192.32 1799  1191 1797.68  1191 1796  C 1191 1794.32  1192.32 1793  1194 1793  C 1195.68 1793  1197 1794.32  1197 1796  C 1197 1797.68  1195.68 1799  1194 1799  " fill-rule="nonzero" fill="#797979" stroke="none" />
</svg>