<?xml version="1.0" encoding="utf-8"?>
<svg version="1.1" xmlns:xlink="http://www.w3.org/1999/xlink" width="12px" height="12px" viewBox="1011 1751  12 12" xmlns="http://www.w3.org/2000/svg">
  <path d="M 1017 1751  C 1020.36 1751  1023 1753.64  1023 1757  C 1023 1760.36  1020.36 1763  1017 1763  C 1013.64 1763  1011 1760.36  1011 1757  C 1011 1753.64  1013.64 1751  1017 1751  Z " fill-rule="nonzero" fill="#ffffff" stroke="none" />
  <path d="M 1017 1751.5  C 1020.08 1751.5  1022.5 1753.92  1022.5 1757  C 1022.5 1760.08  1020.08 1762.5  1017 1762.5  C 1013.92 1762.5  1011.5 1760.08  1011.5 1757  C 1011.5 1753.92  1013.92 1751.5  1017 1751.5  Z " stroke-width="1" stroke="#797979" fill="none" />
  <path d="M 1017 1760  C 1015.32 1760  1014 1758.68  1014 1757  C 1014 1755.32  1015.32 1754  1017 1754  C 1018.68 1754  1020 1755.32  1020 1757  C 1020 1758.68  1018.68 1760  1017 1760  " fill-rule="nonzero" fill="#797979" stroke="none" />
</svg>