<?xml version="1.0" encoding="utf-8"?>
<svg version="1.1" xmlns:xlink="http://www.w3.org/1999/xlink" width="12px" height="12px" viewBox="1093 1751  12 12" xmlns="http://www.w3.org/2000/svg">
  <path d="M 1099 1751  C 1102.36 1751  1105 1753.64  1105 1757  C 1105 1760.36  1102.36 1763  1099 1763  C 1095.64 1763  1093 1760.36  1093 1757  C 1093 1753.64  1095.64 1751  1099 1751  Z " fill-rule="nonzero" fill="#f0f0f0" stroke="none" />
  <path d="M 1099 1751.5  C 1102.08 1751.5  1104.5 1753.92  1104.5 1757  C 1104.5 1760.08  1102.08 1762.5  1099 1762.5  C 1095.92 1762.5  1093.5 1760.08  1093.5 1757  C 1093.5 1753.92  1095.92 1751.5  1099 1751.5  Z " stroke-width="1" stroke="#797979" fill="none" />
  <path d="M 1099 1760  C 1097.32 1760  1096 1758.68  1096 1757  C 1096 1755.32  1097.32 1754  1099 1754  C 1100.68 1754  1102 1755.32  1102 1757  C 1102 1758.68  1100.68 1760  1099 1760  " fill-rule="nonzero" fill="#797979" stroke="none" />
</svg>