<?xml version="1.0" encoding="utf-8"?>
<svg version="1.1" xmlns:xlink="http://www.w3.org/1999/xlink" width="12px" height="12px" viewBox="667 1929  12 12" xmlns="http://www.w3.org/2000/svg">
  <path d="M 673 1929  C 676.36 1929  679 1931.64  679 1935  C 679 1938.36  676.36 1941  673 1941  C 669.64 1941  667 1938.36  667 1935  C 667 1931.64  669.64 1929  673 1929  Z " fill-rule="nonzero" fill="#ffffff" stroke="none" />
  <path d="M 673 1929.5  C 676.08 1929.5  678.5 1931.92  678.5 1935  C 678.5 1938.08  676.08 1940.5  673 1940.5  C 669.92 1940.5  667.5 1938.08  667.5 1935  C 667.5 1931.92  669.92 1929.5  673 1929.5  Z " stroke-width="1" stroke="#797979" fill="none" />
  <path d="M 673 1938  C 671.32 1938  670 1936.68  670 1935  C 670 1933.32  671.32 1932  673 1932  C 674.68 1932  676 1933.32  676 1935  C 676 1936.68  674.68 1938  673 1938  " fill-rule="nonzero" fill="#797979" stroke="none" />
</svg>