<?xml version="1.0" encoding="utf-8"?>
<svg version="1.1" xmlns:xlink="http://www.w3.org/1999/xlink" width="12px" height="12px" viewBox="490 1890  12 12" xmlns="http://www.w3.org/2000/svg">
  <path d="M 496 1890  C 499.36 1890  502 1892.64  502 1896  C 502 1899.36  499.36 1902  496 1902  C 492.64 1902  490 1899.36  490 1896  C 490 1892.64  492.64 1890  496 1890  Z " fill-rule="nonzero" fill="#f0f0f0" stroke="none" />
  <path d="M 496 1890.5  C 499.08 1890.5  501.5 1892.92  501.5 1896  C 501.5 1899.08  499.08 1901.5  496 1901.5  C 492.92 1901.5  490.5 1899.08  490.5 1896  C 490.5 1892.92  492.92 1890.5  496 1890.5  Z " stroke-width="1" stroke="#797979" fill="none" />
  <path d="M 496 1899  C 494.32 1899  493 1897.68  493 1896  C 493 1894.32  494.32 1893  496 1893  C 497.68 1893  499 1894.32  499 1896  C 499 1897.68  497.68 1899  496 1899  " fill-rule="nonzero" fill="#797979" stroke="none" />
</svg>