<?xml version="1.0" encoding="utf-8"?>
<svg version="1.1" xmlns:xlink="http://www.w3.org/1999/xlink" width="12px" height="12px" viewBox="749 1929  12 12" xmlns="http://www.w3.org/2000/svg">
  <path d="M 755 1929  C 758.36 1929  761 1931.64  761 1935  C 761 1938.36  758.36 1941  755 1941  C 751.64 1941  749 1938.36  749 1935  C 749 1931.64  751.64 1929  755 1929  Z " fill-rule="nonzero" fill="#ffffff" stroke="none" />
  <path d="M 755 1929.5  C 758.08 1929.5  760.5 1931.92  760.5 1935  C 760.5 1938.08  758.08 1940.5  755 1940.5  C 751.92 1940.5  749.5 1938.08  749.5 1935  C 749.5 1931.92  751.92 1929.5  755 1929.5  Z " stroke-width="1" stroke="#797979" fill="none" />
  <path d="M 755 1938  C 753.32 1938  752 1936.68  752 1935  C 752 1933.32  753.32 1932  755 1932  C 756.68 1932  758 1933.32  758 1935  C 758 1936.68  756.68 1938  755 1938  " fill-rule="nonzero" fill="#797979" stroke="none" />
</svg>