<?xml version="1.0" encoding="utf-8"?>
<svg version="1.1" xmlns:xlink="http://www.w3.org/1999/xlink" width="12px" height="12px" viewBox="572 1890  12 12" xmlns="http://www.w3.org/2000/svg">
  <path d="M 578 1890  C 581.36 1890  584 1892.64  584 1896  C 584 1899.36  581.36 1902  578 1902  C 574.64 1902  572 1899.36  572 1896  C 572 1892.64  574.64 1890  578 1890  Z " fill-rule="nonzero" fill="#ffffff" stroke="none" />
  <path d="M 578 1890.5  C 581.08 1890.5  583.5 1892.92  583.5 1896  C 583.5 1899.08  581.08 1901.5  578 1901.5  C 574.92 1901.5  572.5 1899.08  572.5 1896  C 572.5 1892.92  574.92 1890.5  578 1890.5  Z " stroke-width="1" stroke="#797979" fill="none" />
  <path d="M 578 1899  C 576.32 1899  575 1897.68  575 1896  C 575 1894.32  576.32 1893  578 1893  C 579.68 1893  581 1894.32  581 1896  C 581 1897.68  579.68 1899  578 1899  " fill-rule="nonzero" fill="#797979" stroke="none" />
</svg>