<?xml version="1.0" encoding="utf-8"?>
<svg version="1.1" xmlns:xlink="http://www.w3.org/1999/xlink" width="12px" height="12px" viewBox="1274 1930  12 12" xmlns="http://www.w3.org/2000/svg">
  <path d="M 1280 1930  C 1283.36 1930  1286 1932.64  1286 1936  C 1286 1939.36  1283.36 1942  1280 1942  C 1276.64 1942  1274 1939.36  1274 1936  C 1274 1932.64  1276.64 1930  1280 1930  Z " fill-rule="nonzero" fill="#f0f0f0" stroke="none" />
  <path d="M 1280 1930.5  C 1283.08 1930.5  1285.5 1932.92  1285.5 1936  C 1285.5 1939.08  1283.08 1941.5  1280 1941.5  C 1276.92 1941.5  1274.5 1939.08  1274.5 1936  C 1274.5 1932.92  1276.92 1930.5  1280 1930.5  Z " stroke-width="1" stroke="#797979" fill="none" />
  <path d="M 1280 1939  C 1278.32 1939  1277 1937.68  1277 1936  C 1277 1934.32  1278.32 1933  1280 1933  C 1281.68 1933  1283 1934.32  1283 1936  C 1283 1937.68  1281.68 1939  1280 1939  " fill-rule="nonzero" fill="#797979" stroke="none" />
</svg>