<?xml version="1.0" encoding="utf-8"?>
<svg version="1.1" xmlns:xlink="http://www.w3.org/1999/xlink" width="12px" height="12px" viewBox="1097 1891  12 12" xmlns="http://www.w3.org/2000/svg">
  <path d="M 1103 1891  C 1106.36 1891  1109 1893.64  1109 1897  C 1109 1900.36  1106.36 1903  1103 1903  C 1099.64 1903  1097 1900.36  1097 1897  C 1097 1893.64  1099.64 1891  1103 1891  Z " fill-rule="nonzero" fill="#f0f0f0" stroke="none" />
  <path d="M 1103 1891.5  C 1106.08 1891.5  1108.5 1893.92  1108.5 1897  C 1108.5 1900.08  1106.08 1902.5  1103 1902.5  C 1099.92 1902.5  1097.5 1900.08  1097.5 1897  C 1097.5 1893.92  1099.92 1891.5  1103 1891.5  Z " stroke-width="1" stroke="#797979" fill="none" />
  <path d="M 1103 1900  C 1101.32 1900  1100 1898.68  1100 1897  C 1100 1895.32  1101.32 1894  1103 1894  C 1104.68 1894  1106 1895.32  1106 1897  C 1106 1898.68  1104.68 1900  1103 1900  " fill-rule="nonzero" fill="#797979" stroke="none" />
</svg>