<?xml version="1.0" encoding="utf-8"?>
<svg version="1.1" xmlns:xlink="http://www.w3.org/1999/xlink" width="12px" height="12px" viewBox="1015 1891  12 12" xmlns="http://www.w3.org/2000/svg">
  <path d="M 1021 1891  C 1024.36 1891  1027 1893.64  1027 1897  C 1027 1900.36  1024.36 1903  1021 1903  C 1017.64 1903  1015 1900.36  1015 1897  C 1015 1893.64  1017.64 1891  1021 1891  Z " fill-rule="nonzero" fill="#f0f0f0" stroke="none" />
  <path d="M 1021 1891.5  C 1024.08 1891.5  1026.5 1893.92  1026.5 1897  C 1026.5 1900.08  1024.08 1902.5  1021 1902.5  C 1017.92 1902.5  1015.5 1900.08  1015.5 1897  C 1015.5 1893.92  1017.92 1891.5  1021 1891.5  Z " stroke-width="1" stroke="#797979" fill="none" />
  <path d="M 1021 1900  C 1019.32 1900  1018 1898.68  1018 1897  C 1018 1895.32  1019.32 1894  1021 1894  C 1022.68 1894  1024 1895.32  1024 1897  C 1024 1898.68  1022.68 1900  1021 1900  " fill-rule="nonzero" fill="#797979" stroke="none" />
</svg>