<?xml version="1.0" encoding="utf-8"?>
<svg version="1.1" xmlns:xlink="http://www.w3.org/1999/xlink" width="12px" height="12px" viewBox="667 2067  12 12" xmlns="http://www.w3.org/2000/svg">
  <path d="M 673 2067  C 676.36 2067  679 2069.64  679 2073  C 679 2076.36  676.36 2079  673 2079  C 669.64 2079  667 2076.36  667 2073  C 667 2069.64  669.64 2067  673 2067  Z " fill-rule="nonzero" fill="#f0f0f0" stroke="none" />
  <path d="M 673 2067.5  C 676.08 2067.5  678.5 2069.92  678.5 2073  C 678.5 2076.08  676.08 2078.5  673 2078.5  C 669.92 2078.5  667.5 2076.08  667.5 2073  C 667.5 2069.92  669.92 2067.5  673 2067.5  Z " stroke-width="1" stroke="#797979" fill="none" />
  <path d="M 673 2076  C 671.32 2076  670 2074.68  670 2073  C 670 2071.32  671.32 2070  673 2070  C 674.68 2070  676 2071.32  676 2073  C 676 2074.68  674.68 2076  673 2076  " fill-rule="nonzero" fill="#797979" stroke="none" />
</svg>