<?xml version="1.0" encoding="utf-8"?>
<svg version="1.1" xmlns:xlink="http://www.w3.org/1999/xlink" width="12px" height="12px" viewBox="490 2028  12 12" xmlns="http://www.w3.org/2000/svg">
  <path d="M 496 2028  C 499.36 2028  502 2030.64  502 2034  C 502 2037.36  499.36 2040  496 2040  C 492.64 2040  490 2037.36  490 2034  C 490 2030.64  492.64 2028  496 2028  Z " fill-rule="nonzero" fill="#ffffff" stroke="none" />
  <path d="M 496 2028.5  C 499.08 2028.5  501.5 2030.92  501.5 2034  C 501.5 2037.08  499.08 2039.5  496 2039.5  C 492.92 2039.5  490.5 2037.08  490.5 2034  C 490.5 2030.92  492.92 2028.5  496 2028.5  Z " stroke-width="1" stroke="#797979" fill="none" />
  <path d="M 496 2037  C 494.32 2037  493 2035.68  493 2034  C 493 2032.32  494.32 2031  496 2031  C 497.68 2031  499 2032.32  499 2034  C 499 2035.68  497.68 2037  496 2037  " fill-rule="nonzero" fill="#797979" stroke="none" />
</svg>