<?xml version="1.0" encoding="utf-8"?>
<svg version="1.1" xmlns:xlink="http://www.w3.org/1999/xlink" width="12px" height="12px" viewBox="749 2067  12 12" xmlns="http://www.w3.org/2000/svg">
  <path d="M 755 2067  C 758.36 2067  761 2069.64  761 2073  C 761 2076.36  758.36 2079  755 2079  C 751.64 2079  749 2076.36  749 2073  C 749 2069.64  751.64 2067  755 2067  Z " fill-rule="nonzero" fill="#ffffff" stroke="none" />
  <path d="M 755 2067.5  C 758.08 2067.5  760.5 2069.92  760.5 2073  C 760.5 2076.08  758.08 2078.5  755 2078.5  C 751.92 2078.5  749.5 2076.08  749.5 2073  C 749.5 2069.92  751.92 2067.5  755 2067.5  Z " stroke-width="1" stroke="#797979" fill="none" />
  <path d="M 755 2076  C 753.32 2076  752 2074.68  752 2073  C 752 2071.32  753.32 2070  755 2070  C 756.68 2070  758 2071.32  758 2073  C 758 2074.68  756.68 2076  755 2076  " fill-rule="nonzero" fill="#797979" stroke="none" />
</svg>