<?xml version="1.0" encoding="utf-8"?>
<svg version="1.1" xmlns:xlink="http://www.w3.org/1999/xlink" width="12px" height="12px" viewBox="572 2028  12 12" xmlns="http://www.w3.org/2000/svg">
  <path d="M 578 2028  C 581.36 2028  584 2030.64  584 2034  C 584 2037.36  581.36 2040  578 2040  C 574.64 2040  572 2037.36  572 2034  C 572 2030.64  574.64 2028  578 2028  Z " fill-rule="nonzero" fill="#ffffff" stroke="none" />
  <path d="M 578 2028.5  C 581.08 2028.5  583.5 2030.92  583.5 2034  C 583.5 2037.08  581.08 2039.5  578 2039.5  C 574.92 2039.5  572.5 2037.08  572.5 2034  C 572.5 2030.92  574.92 2028.5  578 2028.5  Z " stroke-width="1" stroke="#797979" fill="none" />
  <path d="M 578 2037  C 576.32 2037  575 2035.68  575 2034  C 575 2032.32  576.32 2031  578 2031  C 579.68 2031  581 2032.32  581 2034  C 581 2035.68  579.68 2037  578 2037  " fill-rule="nonzero" fill="#797979" stroke="none" />
</svg>