<?xml version="1.0" encoding="utf-8"?>
<svg version="1.1" xmlns:xlink="http://www.w3.org/1999/xlink" width="12px" height="12px" viewBox="1173 2231  12 12" xmlns="http://www.w3.org/2000/svg">
  <path d="M 1179 2231  C 1182.36 2231  1185 2233.64  1185 2237  C 1185 2240.36  1182.36 2243  1179 2243  C 1175.64 2243  1173 2240.36  1173 2237  C 1173 2233.64  1175.64 2231  1179 2231  Z " fill-rule="nonzero" fill="#f0f0f0" stroke="none" />
  <path d="M 1179 2231.5  C 1182.08 2231.5  1184.5 2233.92  1184.5 2237  C 1184.5 2240.08  1182.08 2242.5  1179 2242.5  C 1175.92 2242.5  1173.5 2240.08  1173.5 2237  C 1173.5 2233.92  1175.92 2231.5  1179 2231.5  Z " stroke-width="1" stroke="#797979" fill="none" />
  <path d="M 1179 2240  C 1177.32 2240  1176 2238.68  1176 2237  C 1176 2235.32  1177.32 2234  1179 2234  C 1180.68 2234  1182 2235.32  1182 2237  C 1182 2238.68  1180.68 2240  1179 2240  " fill-rule="nonzero" fill="#797979" stroke="none" />
</svg>