<?xml version="1.0" encoding="utf-8"?>
<svg version="1.1" xmlns:xlink="http://www.w3.org/1999/xlink" width="12px" height="12px" viewBox="996 2192  12 12" xmlns="http://www.w3.org/2000/svg">
  <path d="M 1002 2192  C 1005.36 2192  1008 2194.64  1008 2198  C 1008 2201.36  1005.36 2204  1002 2204  C 998.64 2204  996 2201.36  996 2198  C 996 2194.64  998.64 2192  1002 2192  Z " fill-rule="nonzero" fill="#ffffff" stroke="none" />
  <path d="M 1002 2192.5  C 1005.08 2192.5  1007.5 2194.92  1007.5 2198  C 1007.5 2201.08  1005.08 2203.5  1002 2203.5  C 998.92 2203.5  996.5 2201.08  996.5 2198  C 996.5 2194.92  998.92 2192.5  1002 2192.5  Z " stroke-width="1" stroke="#797979" fill="none" />
  <path d="M 1002 2201  C 1000.32 2201  999 2199.68  999 2198  C 999 2196.32  1000.32 2195  1002 2195  C 1003.68 2195  1005 2196.32  1005 2198  C 1005 2199.68  1003.68 2201  1002 2201  " fill-rule="nonzero" fill="#797979" stroke="none" />
</svg>