<?xml version="1.0" encoding="utf-8"?>
<svg version="1.1" xmlns:xlink="http://www.w3.org/1999/xlink" width="12px" height="12px" viewBox="1255 2231  12 12" xmlns="http://www.w3.org/2000/svg">
  <path d="M 1261 2231  C 1264.36 2231  1267 2233.64  1267 2237  C 1267 2240.36  1264.36 2243  1261 2243  C 1257.64 2243  1255 2240.36  1255 2237  C 1255 2233.64  1257.64 2231  1261 2231  Z " fill-rule="nonzero" fill="#ffffff" stroke="none" />
  <path d="M 1261 2231.5  C 1264.08 2231.5  1266.5 2233.92  1266.5 2237  C 1266.5 2240.08  1264.08 2242.5  1261 2242.5  C 1257.92 2242.5  1255.5 2240.08  1255.5 2237  C 1255.5 2233.92  1257.92 2231.5  1261 2231.5  Z " stroke-width="1" stroke="#797979" fill="none" />
  <path d="M 1261 2240  C 1259.32 2240  1258 2238.68  1258 2237  C 1258 2235.32  1259.32 2234  1261 2234  C 1262.68 2234  1264 2235.32  1264 2237  C 1264 2238.68  1262.68 2240  1261 2240  " fill-rule="nonzero" fill="#797979" stroke="none" />
</svg>