<?xml version="1.0" encoding="utf-8"?>
<svg version="1.1" xmlns:xlink="http://www.w3.org/1999/xlink" width="12px" height="12px" viewBox="1173 2353  12 12" xmlns="http://www.w3.org/2000/svg">
  <path d="M 1179 2353  C 1182.36 2353  1185 2355.64  1185 2359  C 1185 2362.36  1182.36 2365  1179 2365  C 1175.64 2365  1173 2362.36  1173 2359  C 1173 2355.64  1175.64 2353  1179 2353  Z " fill-rule="nonzero" fill="#f0f0f0" stroke="none" />
  <path d="M 1179 2353.5  C 1182.08 2353.5  1184.5 2355.92  1184.5 2359  C 1184.5 2362.08  1182.08 2364.5  1179 2364.5  C 1175.92 2364.5  1173.5 2362.08  1173.5 2359  C 1173.5 2355.92  1175.92 2353.5  1179 2353.5  Z " stroke-width="1" stroke="#797979" fill="none" />
  <path d="M 1179 2362  C 1177.32 2362  1176 2360.68  1176 2359  C 1176 2357.32  1177.32 2356  1179 2356  C 1180.68 2356  1182 2357.32  1182 2359  C 1182 2360.68  1180.68 2362  1179 2362  " fill-rule="nonzero" fill="#797979" stroke="none" />
</svg>