<?xml version="1.0" encoding="utf-8"?>
<svg version="1.1" xmlns:xlink="http://www.w3.org/1999/xlink" width="12px" height="12px" viewBox="1255 2353  12 12" xmlns="http://www.w3.org/2000/svg">
  <path d="M 1261 2353  C 1264.36 2353  1267 2355.64  1267 2359  C 1267 2362.36  1264.36 2365  1261 2365  C 1257.64 2365  1255 2362.36  1255 2359  C 1255 2355.64  1257.64 2353  1261 2353  Z " fill-rule="nonzero" fill="#ffffff" stroke="none" />
  <path d="M 1261 2353.5  C 1264.08 2353.5  1266.5 2355.92  1266.5 2359  C 1266.5 2362.08  1264.08 2364.5  1261 2364.5  C 1257.92 2364.5  1255.5 2362.08  1255.5 2359  C 1255.5 2355.92  1257.92 2353.5  1261 2353.5  Z " stroke-width="1" stroke="#797979" fill="none" />
  <path d="M 1261 2362  C 1259.32 2362  1258 2360.68  1258 2359  C 1258 2357.32  1259.32 2356  1261 2356  C 1262.68 2356  1264 2357.32  1264 2359  C 1264 2360.68  1262.68 2362  1261 2362  " fill-rule="nonzero" fill="#797979" stroke="none" />
</svg>