<?xml version="1.0" encoding="utf-8"?>
<svg version="1.1" xmlns:xlink="http://www.w3.org/1999/xlink" width="12px" height="12px" viewBox="1078 2314  12 12" xmlns="http://www.w3.org/2000/svg">
  <path d="M 1084 2314  C 1087.36 2314  1090 2316.64  1090 2320  C 1090 2323.36  1087.36 2326  1084 2326  C 1080.64 2326  1078 2323.36  1078 2320  C 1078 2316.64  1080.64 2314  1084 2314  Z " fill-rule="nonzero" fill="#f0f0f0" stroke="none" />
  <path d="M 1084 2314.5  C 1087.08 2314.5  1089.5 2316.92  1089.5 2320  C 1089.5 2323.08  1087.08 2325.5  1084 2325.5  C 1080.92 2325.5  1078.5 2323.08  1078.5 2320  C 1078.5 2316.92  1080.92 2314.5  1084 2314.5  Z " stroke-width="1" stroke="#797979" fill="none" />
  <path d="M 1084 2323  C 1082.32 2323  1081 2321.68  1081 2320  C 1081 2318.32  1082.32 2317  1084 2317  C 1085.68 2317  1087 2318.32  1087 2320  C 1087 2321.68  1085.68 2323  1084 2323  " fill-rule="nonzero" fill="#797979" stroke="none" />
</svg>