<?xml version="1.0" encoding="utf-8"?>
<svg version="1.1" xmlns:xlink="http://www.w3.org/1999/xlink" width="12px" height="12px" viewBox="494 2574  12 12" xmlns="http://www.w3.org/2000/svg">
  <path d="M 500 2574  C 503.36 2574  506 2576.64  506 2580  C 506 2583.36  503.36 2586  500 2586  C 496.64 2586  494 2583.36  494 2580  C 494 2576.64  496.64 2574  500 2574  Z " fill-rule="nonzero" fill="#ffffff" stroke="none" />
  <path d="M 500 2574.5  C 503.08 2574.5  505.5 2576.92  505.5 2580  C 505.5 2583.08  503.08 2585.5  500 2585.5  C 496.92 2585.5  494.5 2583.08  494.5 2580  C 494.5 2576.92  496.92 2574.5  500 2574.5  Z " stroke-width="1" stroke="#797979" fill="none" />
  <path d="M 500 2583  C 498.32 2583  497 2581.68  497 2580  C 497 2578.32  498.32 2577  500 2577  C 501.68 2577  503 2578.32  503 2580  C 503 2581.68  501.68 2583  500 2583  " fill-rule="nonzero" fill="#797979" stroke="none" />
</svg>