<?xml version="1.0" encoding="utf-8"?>
<svg version="1.1" xmlns:xlink="http://www.w3.org/1999/xlink" width="12px" height="12px" viewBox="753 2613  12 12" xmlns="http://www.w3.org/2000/svg">
  <path d="M 759 2613  C 762.36 2613  765 2615.64  765 2619  C 765 2622.36  762.36 2625  759 2625  C 755.64 2625  753 2622.36  753 2619  C 753 2615.64  755.64 2613  759 2613  Z " fill-rule="nonzero" fill="#f0f0f0" stroke="none" />
  <path d="M 759 2613.5  C 762.08 2613.5  764.5 2615.92  764.5 2619  C 764.5 2622.08  762.08 2624.5  759 2624.5  C 755.92 2624.5  753.5 2622.08  753.5 2619  C 753.5 2615.92  755.92 2613.5  759 2613.5  Z " stroke-width="1" stroke="#797979" fill="none" />
  <path d="M 759 2622  C 757.32 2622  756 2620.68  756 2619  C 756 2617.32  757.32 2616  759 2616  C 760.68 2616  762 2617.32  762 2619  C 762 2620.68  760.68 2622  759 2622  " fill-rule="nonzero" fill="#797979" stroke="none" />
</svg>