<?xml version="1.0" encoding="utf-8"?>
<svg version="1.1" xmlns:xlink="http://www.w3.org/1999/xlink" width="12px" height="12px" viewBox="124 1194  12 12" xmlns="http://www.w3.org/2000/svg">
  <path d="M 130 1194  C 133.36 1194  136 1196.64  136 1200  C 136 1203.36  133.36 1206  130 1206  C 126.64 1206  124 1203.36  124 1200  C 124 1196.64  126.64 1194  130 1194  Z " fill-rule="nonzero" fill="#ffffff" stroke="none" />
  <path d="M 130 1194.5  C 133.08 1194.5  135.5 1196.92  135.5 1200  C 135.5 1203.08  133.08 1205.5  130 1205.5  C 126.92 1205.5  124.5 1203.08  124.5 1200  C 124.5 1196.92  126.92 1194.5  130 1194.5  Z " stroke-width="1" stroke="#797979" fill="none" />
  <path d="M 130 1203  C 128.32 1203  127 1201.68  127 1200  C 127 1198.32  128.32 1197  130 1197  C 131.68 1197  133 1198.32  133 1200  C 133 1201.68  131.68 1203  130 1203  " fill-rule="nonzero" fill="#797979" stroke="none" />
</svg>