<?xml version="1.0" encoding="utf-8"?>
<svg version="1.1" xmlns:xlink="http://www.w3.org/1999/xlink" width="12px" height="12px" viewBox="124 1283  12 12" xmlns="http://www.w3.org/2000/svg">
  <path d="M 130 1283  C 133.36 1283  136 1285.64  136 1289  C 136 1292.36  133.36 1295  130 1295  C 126.64 1295  124 1292.36  124 1289  C 124 1285.64  126.64 1283  130 1283  Z " fill-rule="nonzero" fill="#ffffff" stroke="none" />
  <path d="M 130 1283.5  C 133.08 1283.5  135.5 1285.92  135.5 1289  C 135.5 1292.08  133.08 1294.5  130 1294.5  C 126.92 1294.5  124.5 1292.08  124.5 1289  C 124.5 1285.92  126.92 1283.5  130 1283.5  Z " stroke-width="1" stroke="#797979" fill="none" />
  <path d="M 130 1292  C 128.32 1292  127 1290.68  127 1289  C 127 1287.32  128.32 1286  130 1286  C 131.68 1286  133 1287.32  133 1289  C 133 1290.68  131.68 1292  130 1292  " fill-rule="nonzero" fill="#797979" stroke="none" />
</svg>