<?xml version="1.0" encoding="utf-8"?>
<svg version="1.1" xmlns:xlink="http://www.w3.org/1999/xlink" width="12px" height="12px" viewBox="124 1314  12 12" xmlns="http://www.w3.org/2000/svg">
  <path d="M 130 1314  C 133.36 1314  136 1316.64  136 1320  C 136 1323.36  133.36 1326  130 1326  C 126.64 1326  124 1323.36  124 1320  C 124 1316.64  126.64 1314  130 1314  Z " fill-rule="nonzero" fill="#ffffff" stroke="none" />
  <path d="M 130 1314.5  C 133.08 1314.5  135.5 1316.92  135.5 1320  C 135.5 1323.08  133.08 1325.5  130 1325.5  C 126.92 1325.5  124.5 1323.08  124.5 1320  C 124.5 1316.92  126.92 1314.5  130 1314.5  Z " stroke-width="1" stroke="#797979" fill="none" />
  <path d="M 130 1323  C 128.32 1323  127 1321.68  127 1320  C 127 1318.32  128.32 1317  130 1317  C 131.68 1317  133 1318.32  133 1320  C 133 1321.68  131.68 1323  130 1323  " fill-rule="nonzero" fill="#797979" stroke="none" />
</svg>