<?xml version="1.0" encoding="utf-8"?>
<svg version="1.1" xmlns:xlink="http://www.w3.org/1999/xlink" width="12px" height="12px" viewBox="124 1343  12 12" xmlns="http://www.w3.org/2000/svg">
  <path d="M 130 1343  C 133.36 1343  136 1345.64  136 1349  C 136 1352.36  133.36 1355  130 1355  C 126.64 1355  124 1352.36  124 1349  C 124 1345.64  126.64 1343  130 1343  Z " fill-rule="nonzero" fill="#ffffff" stroke="none" />
  <path d="M 130 1343.5  C 133.08 1343.5  135.5 1345.92  135.5 1349  C 135.5 1352.08  133.08 1354.5  130 1354.5  C 126.92 1354.5  124.5 1352.08  124.5 1349  C 124.5 1345.92  126.92 1343.5  130 1343.5  Z " stroke-width="1" stroke="#797979" fill="none" />
  <path d="M 130 1352  C 128.32 1352  127 1350.68  127 1349  C 127 1347.32  128.32 1346  130 1346  C 131.68 1346  133 1347.32  133 1349  C 133 1350.68  131.68 1352  130 1352  " fill-rule="nonzero" fill="#797979" stroke="none" />
</svg>