<?xml version="1.0" encoding="utf-8"?>
<svg version="1.1" xmlns:xlink="http://www.w3.org/1999/xlink" width="12px" height="12px" viewBox="216 109  12 12" xmlns="http://www.w3.org/2000/svg">
  <path d="M 222 109  C 225.36 109  228 111.64  228 115  C 228 118.36  225.36 121  222 121  C 218.64 121  216 118.36  216 115  C 216 111.64  218.64 109  222 109  Z " fill-rule="nonzero" fill="#f0f0f0" stroke="none" />
  <path d="M 222 109.5  C 225.08 109.5  227.5 111.92  227.5 115  C 227.5 118.08  225.08 120.5  222 120.5  C 218.92 120.5  216.5 118.08  216.5 115  C 216.5 111.92  218.92 109.5  222 109.5  Z " stroke-width="1" stroke="#797979" fill="none" />
  <path d="M 222 118  C 220.32 118  219 116.68  219 115  C 219 113.32  220.32 112  222 112  C 223.68 112  225 113.32  225 115  C 225 116.68  223.68 118  222 118  " fill-rule="nonzero" fill="#797979" stroke="none" />
</svg>