<?xml version="1.0" encoding="utf-8"?>
<svg version="1.1" xmlns:xlink="http://www.w3.org/1999/xlink" width="12px" height="12px" viewBox="216 162  12 12" xmlns="http://www.w3.org/2000/svg">
  <path d="M 222 162  C 225.36 162  228 164.64  228 168  C 228 171.36  225.36 174  222 174  C 218.64 174  216 171.36  216 168  C 216 164.64  218.64 162  222 162  Z " fill-rule="nonzero" fill="#ffffff" stroke="none" />
  <path d="M 222 162.5  C 225.08 162.5  227.5 164.92  227.5 168  C 227.5 171.08  225.08 173.5  222 173.5  C 218.92 173.5  216.5 171.08  216.5 168  C 216.5 164.92  218.92 162.5  222 162.5  Z " stroke-width="1" stroke="#797979" fill="none" />
  <path d="M 222 171  C 220.32 171  219 169.68  219 168  C 219 166.32  220.32 165  222 165  C 223.68 165  225 166.32  225 168  C 225 169.68  223.68 171  222 171  " fill-rule="nonzero" fill="#797979" stroke="none" />
</svg>