<?xml version="1.0" encoding="utf-8"?>
<svg version="1.1" xmlns:xlink="http://www.w3.org/1999/xlink" width="519px" height="142px" xmlns="http://www.w3.org/2000/svg">
  <g transform="matrix(1 0 0 1 -64 -169 )">
    <path d="M 65 173  A 3 3 0 0 1 68 170 L 579 170  A 3 3 0 0 1 582 173 L 582 307  A 3 3 0 0 1 579 310 L 68 310  A 3 3 0 0 1 65 307 L 65 173  Z " fill-rule="nonzero" fill="#000000" stroke="none" fill-opacity="0.0196078431372549" />
    <path d="M 64.5 173  A 3.5 3.5 0 0 1 68 169.5 L 579 169.5  A 3.5 3.5 0 0 1 582.5 173 L 582.5 307  A 3.5 3.5 0 0 1 579 310.5 L 68 310.5  A 3.5 3.5 0 0 1 64.5 307 L 64.5 173  Z " stroke-width="1" stroke-dasharray="9,4" stroke="#d9d9d9" fill="none" stroke-dashoffset="0.5" />
  </g>
</svg>