<?xml version="1.0" encoding="utf-8"?>
<svg version="1.1" xmlns:xlink="http://www.w3.org/1999/xlink" width="519px" height="142px" xmlns="http://www.w3.org/2000/svg">
  <g transform="matrix(1 0 0 1 -64 -158 )">
    <path d="M 65 162  A 3 3 0 0 1 68 159 L 579 159  A 3 3 0 0 1 582 162 L 582 296  A 3 3 0 0 1 579 299 L 68 299  A 3 3 0 0 1 65 296 L 65 162  Z " fill-rule="nonzero" fill="#000000" stroke="none" fill-opacity="0.0196078431372549" />
    <path d="M 64.5 162  A 3.5 3.5 0 0 1 68 158.5 L 579 158.5  A 3.5 3.5 0 0 1 582.5 162 L 582.5 296  A 3.5 3.5 0 0 1 579 299.5 L 68 299.5  A 3.5 3.5 0 0 1 64.5 296 L 64.5 162  Z " stroke-width="1" stroke-dasharray="9,4" stroke="#d9d9d9" fill="none" stroke-dashoffset="0.5" />
  </g>
</svg>