<?xml version="1.0" encoding="utf-8"?>
<svg version="1.1" xmlns:xlink="http://www.w3.org/1999/xlink" width="40px" height="40px" xmlns="http://www.w3.org/2000/svg">
  <defs>
    <filter x="685px" y="869px" width="40px" height="40px" filterUnits="userSpaceOnUse" id="filter2">
      <feOffset dx="1" dy="1" in="SourceAlpha" result="shadowOffsetInner" />
      <feGaussianBlur stdDeviation="2.5" in="shadowOffsetInner" result="shadowGaussian" />
      <feComposite in2="shadowGaussian" operator="atop" in="SourceAlpha" result="shadowComposite" />
      <feColorMatrix type="matrix" values="0 0 0 0 0  0 0 0 0 0  0 0 0 0 0  0 0 0 0.698039215686274 0  " in="shadowComposite" />
    </filter>
    <g id="widget3">
      <path d="M 704 873  C 712.4 873  719 879.6  719 888  C 719 896.4  712.4 903  704 903  C 695.6 903  689 896.4  689 888  C 689 879.6  695.6 873  704 873  Z " fill-rule="nonzero" fill="#009dd9" stroke="none" />
      <path d="M 704 873.5  C 712.12 873.5  718.5 879.88  718.5 888  C 718.5 896.12  712.12 902.5  704 902.5  C 695.88 902.5  689.5 896.12  689.5 888  C 689.5 879.88  695.88 873.5  704 873.5  Z " stroke-width="1" stroke="#ffffff" fill="none" />
    </g>
  </defs>
  <g transform="matrix(1 0 0 1 -685 -869 )">
    <use xlink:href="#widget3" filter="url(#filter2)" />
    <use xlink:href="#widget3" />
  </g>
</svg>