<?xml version="1.0" encoding="utf-8"?>
<svg version="1.1" xmlns:xlink="http://www.w3.org/1999/xlink" width="40px" height="40px" xmlns="http://www.w3.org/2000/svg">
  <defs>
    <filter x="201px" y="817px" width="40px" height="40px" filterUnits="userSpaceOnUse" id="filter12">
      <feOffset dx="1" dy="1" in="SourceAlpha" result="shadowOffsetInner" />
      <feGaussianBlur stdDeviation="2.5" in="shadowOffsetInner" result="shadowGaussian" />
      <feComposite in2="shadowGaussian" operator="atop" in="SourceAlpha" result="shadowComposite" />
      <feColorMatrix type="matrix" values="0 0 0 0 0  0 0 0 0 0  0 0 0 0 0  0 0 0 0.698039215686274 0  " in="shadowComposite" />
    </filter>
    <g id="widget13">
      <path d="M 220 821  C 228.4 821  235 827.6  235 836  C 235 844.4  228.4 851  220 851  C 211.6 851  205 844.4  205 836  C 205 827.6  211.6 821  220 821  Z " fill-rule="nonzero" fill="#009dd9" stroke="none" />
      <path d="M 220 821.5  C 228.12 821.5  234.5 827.88  234.5 836  C 234.5 844.12  228.12 850.5  220 850.5  C 211.88 850.5  205.5 844.12  205.5 836  C 205.5 827.88  211.88 821.5  220 821.5  Z " stroke-width="1" stroke="#ffffff" fill="none" />
    </g>
  </defs>
  <g transform="matrix(1 0 0 1 -201 -817 )">
    <use xlink:href="#widget13" filter="url(#filter12)" />
    <use xlink:href="#widget13" />
  </g>
</svg>