<?xml version="1.0" encoding="utf-8"?>
<svg version="1.1" xmlns:xlink="http://www.w3.org/1999/xlink" width="12px" height="12px" viewBox="308 407  12 12" xmlns="http://www.w3.org/2000/svg">
  <path d="M 314 407  C 317.36 407  320 409.64  320 413  C 320 416.36  317.36 419  314 419  C 310.64 419  308 416.36  308 413  C 308 409.64  310.64 407  314 407  Z " fill-rule="nonzero" fill="#ffffff" stroke="none" />
  <path d="M 314 407.5  C 317.08 407.5  319.5 409.92  319.5 413  C 319.5 416.08  317.08 418.5  314 418.5  C 310.92 418.5  308.5 416.08  308.5 413  C 308.5 409.92  310.92 407.5  314 407.5  Z " stroke-width="1" stroke="#797979" fill="none" />
  <path d="M 314 416  C 312.32 416  311 414.68  311 413  C 311 411.32  312.32 410  314 410  C 315.68 410  317 411.32  317 413  C 317 414.68  315.68 416  314 416  " fill-rule="nonzero" fill="#797979" stroke="none" />
</svg>