<?xml version="1.0" encoding="utf-8"?>
<svg version="1.1" xmlns:xlink="http://www.w3.org/1999/xlink" width="12px" height="12px" viewBox="385 407  12 12" xmlns="http://www.w3.org/2000/svg">
  <path d="M 391 407  C 394.36 407  397 409.64  397 413  C 397 416.36  394.36 419  391 419  C 387.64 419  385 416.36  385 413  C 385 409.64  387.64 407  391 407  Z " fill-rule="nonzero" fill="#ffffff" stroke="none" />
  <path d="M 391 407.5  C 394.08 407.5  396.5 409.92  396.5 413  C 396.5 416.08  394.08 418.5  391 418.5  C 387.92 418.5  385.5 416.08  385.5 413  C 385.5 409.92  387.92 407.5  391 407.5  Z " stroke-width="1" stroke="#797979" fill="none" />
  <path d="M 391 416  C 389.32 416  388 414.68  388 413  C 388 411.32  389.32 410  391 410  C 392.68 410  394 411.32  394 413  C 394 414.68  392.68 416  391 416  " fill-rule="nonzero" fill="#797979" stroke="none" />
</svg>