<?xml version="1.0" encoding="utf-8"?>
<svg version="1.1" xmlns:xlink="http://www.w3.org/1999/xlink" width="12px" height="12px" viewBox="23 883  12 12" xmlns="http://www.w3.org/2000/svg">
  <path d="M 29 883  C 32.36 883  35 885.64  35 889  C 35 892.36  32.36 895  29 895  C 25.64 895  23 892.36  23 889  C 23 885.64  25.64 883  29 883  Z " fill-rule="nonzero" fill="#f0f0f0" stroke="none" />
  <path d="M 29 883.5  C 32.08 883.5  34.5 885.92  34.5 889  C 34.5 892.08  32.08 894.5  29 894.5  C 25.92 894.5  23.5 892.08  23.5 889  C 23.5 885.92  25.92 883.5  29 883.5  Z " stroke-width="1" stroke="#797979" fill="none" />
  <path d="M 29 892  C 27.32 892  26 890.68  26 889  C 26 887.32  27.32 886  29 886  C 30.68 886  32 887.32  32 889  C 32 890.68  30.68 892  29 892  " fill-rule="nonzero" fill="#797979" stroke="none" />
</svg>