<?xml version="1.0" encoding="utf-8"?>
<svg version="1.1" xmlns:xlink="http://www.w3.org/1999/xlink" width="12px" height="12px" viewBox="23 925  12 12" xmlns="http://www.w3.org/2000/svg">
  <path d="M 29 925  C 32.36 925  35 927.64  35 931  C 35 934.36  32.36 937  29 937  C 25.64 937  23 934.36  23 931  C 23 927.64  25.64 925  29 925  Z " fill-rule="nonzero" fill="#f0f0f0" stroke="none" />
  <path d="M 29 925.5  C 32.08 925.5  34.5 927.92  34.5 931  C 34.5 934.08  32.08 936.5  29 936.5  C 25.92 936.5  23.5 934.08  23.5 931  C 23.5 927.92  25.92 925.5  29 925.5  Z " stroke-width="1" stroke="#797979" fill="none" />
  <path d="M 29 934  C 27.32 934  26 932.68  26 931  C 26 929.32  27.32 928  29 928  C 30.68 928  32 929.32  32 931  C 32 932.68  30.68 934  29 934  " fill-rule="nonzero" fill="#797979" stroke="none" />
</svg>