<?xml version="1.0" encoding="utf-8"?>
<svg version="1.1" xmlns:xlink="http://www.w3.org/1999/xlink" width="12px" height="12px" viewBox="19 636  12 12" xmlns="http://www.w3.org/2000/svg">
  <path d="M 25 636  C 28.36 636  31 638.64  31 642  C 31 645.36  28.36 648  25 648  C 21.64 648  19 645.36  19 642  C 19 638.64  21.64 636  25 636  Z " fill-rule="nonzero" fill="#ffffff" stroke="none" />
  <path d="M 25 636.5  C 28.08 636.5  30.5 638.92  30.5 642  C 30.5 645.08  28.08 647.5  25 647.5  C 21.92 647.5  19.5 645.08  19.5 642  C 19.5 638.92  21.92 636.5  25 636.5  Z " stroke-width="1" stroke="#797979" fill="none" />
  <path d="M 25 645  C 23.32 645  22 643.68  22 642  C 22 640.32  23.32 639  25 639  C 26.68 639  28 640.32  28 642  C 28 643.68  26.68 645  25 645  " fill-rule="nonzero" fill="#797979" stroke="none" />
</svg>