<?xml version="1.0" encoding="utf-8"?>
<svg version="1.1" xmlns:xlink="http://www.w3.org/1999/xlink" width="12px" height="12px" viewBox="20 1314  12 12" xmlns="http://www.w3.org/2000/svg">
  <path d="M 26 1314  C 29.36 1314  32 1316.64  32 1320  C 32 1323.36  29.36 1326  26 1326  C 22.64 1326  20 1323.36  20 1320  C 20 1316.64  22.64 1314  26 1314  Z " fill-rule="nonzero" fill="#ffffff" stroke="none" />
  <path d="M 26 1314.5  C 29.08 1314.5  31.5 1316.92  31.5 1320  C 31.5 1323.08  29.08 1325.5  26 1325.5  C 22.92 1325.5  20.5 1323.08  20.5 1320  C 20.5 1316.92  22.92 1314.5  26 1314.5  Z " stroke-width="1" stroke="#797979" fill="none" />
  <path d="M 26 1323  C 24.32 1323  23 1321.68  23 1320  C 23 1318.32  24.32 1317  26 1317  C 27.68 1317  29 1318.32  29 1320  C 29 1321.68  27.68 1323  26 1323  " fill-rule="nonzero" fill="#797979" stroke="none" />
</svg>