<?xml version="1.0" encoding="utf-8"?>
<svg version="1.1" xmlns:xlink="http://www.w3.org/1999/xlink" width="70px" height="25px" xmlns="http://www.w3.org/2000/svg">
  <g transform="matrix(1 0 0 1 -76 -617 )">
    <path d="M 77 625  A 7 7 0 0 1 84 618 L 138 618  A 7 7 0 0 1 145 625 L 145 634  A 7 7 0 0 1 138 641 L 84 641  A 7 7 0 0 1 77 634 L 77 625  Z " fill-rule="nonzero" fill="#0079fe" stroke="none" />
    <path d="M 76.5 625  A 7.5 7.5 0 0 1 84 617.5 L 138 617.5  A 7.5 7.5 0 0 1 145.5 625 L 145.5 634  A 7.5 7.5 0 0 1 138 641.5 L 84 641.5  A 7.5 7.5 0 0 1 76.5 634 L 76.5 625  Z " stroke-width="1" stroke="#0079fe" fill="none" stroke-opacity="0.654901960784314" />
  </g>
</svg>