<?xml version="1.0" encoding="utf-8"?>
<svg version="1.1" xmlns:xlink="http://www.w3.org/1999/xlink" width="12px" height="12px" viewBox="20 799  12 12" xmlns="http://www.w3.org/2000/svg">
  <path d="M 26 799  C 29.36 799  32 801.64  32 805  C 32 808.36  29.36 811  26 811  C 22.64 811  20 808.36  20 805  C 20 801.64  22.64 799  26 799  Z " fill-rule="nonzero" fill="#ffffff" stroke="none" />
  <path d="M 26 799.5  C 29.08 799.5  31.5 801.92  31.5 805  C 31.5 808.08  29.08 810.5  26 810.5  C 22.92 810.5  20.5 808.08  20.5 805  C 20.5 801.92  22.92 799.5  26 799.5  Z " stroke-width="1" stroke="#797979" fill="none" />
  <path d="M 26 808  C 24.32 808  23 806.68  23 805  C 23 803.32  24.32 802  26 802  C 27.68 802  29 803.32  29 805  C 29 806.68  27.68 808  26 808  " fill-rule="nonzero" fill="#797979" stroke="none" />
</svg>