<?xml version="1.0" encoding="utf-8"?>
<svg version="1.1" xmlns:xlink="http://www.w3.org/1999/xlink" width="12px" height="12px" viewBox="402 650  12 12" xmlns="http://www.w3.org/2000/svg">
  <path d="M 408 650  C 411.36 650  414 652.64  414 656  C 414 659.36  411.36 662  408 662  C 404.64 662  402 659.36  402 656  C 402 652.64  404.64 650  408 650  Z " fill-rule="nonzero" fill="#ffffff" stroke="none" />
  <path d="M 408 650.5  C 411.08 650.5  413.5 652.92  413.5 656  C 413.5 659.08  411.08 661.5  408 661.5  C 404.92 661.5  402.5 659.08  402.5 656  C 402.5 652.92  404.92 650.5  408 650.5  Z " stroke-width="1" stroke="#797979" fill="none" />
  <path d="M 408 659  C 406.32 659  405 657.68  405 656  C 405 654.32  406.32 653  408 653  C 409.68 653  411 654.32  411 656  C 411 657.68  409.68 659  408 659  " fill-rule="nonzero" fill="#797979" stroke="none" />
</svg>