<?xml version="1.0" encoding="utf-8"?>
<svg version="1.1" xmlns:xlink="http://www.w3.org/1999/xlink" width="40px" height="40px" xmlns="http://www.w3.org/2000/svg">
  <defs>
    <filter x="146px" y="970px" width="40px" height="40px" filterUnits="userSpaceOnUse" id="filter137">
      <feOffset dx="1" dy="1" in="SourceAlpha" result="shadowOffsetInner" />
      <feGaussianBlur stdDeviation="2.5" in="shadowOffsetInner" result="shadowGaussian" />
      <feComposite in2="shadowGaussian" operator="atop" in="SourceAlpha" result="shadowComposite" />
      <feColorMatrix type="matrix" values="0 0 0 0 0  0 0 0 0 0  0 0 0 0 0  0 0 0 0.698039215686274 0  " in="shadowComposite" />
    </filter>
    <g id="widget138">
      <path d="M 165 974  C 173.4 974  180 980.6  180 989  C 180 997.4  173.4 1004  165 1004  C 156.6 1004  150 997.4  150 989  C 150 980.6  156.6 974  165 974  Z " fill-rule="nonzero" fill="#009dd9" stroke="none" />
      <path d="M 165 974.5  C 173.12 974.5  179.5 980.88  179.5 989  C 179.5 997.12  173.12 1003.5  165 1003.5  C 156.88 1003.5  150.5 997.12  150.5 989  C 150.5 980.88  156.88 974.5  165 974.5  Z " stroke-width="1" stroke="#ffffff" fill="none" />
    </g>
  </defs>
  <g transform="matrix(1 0 0 1 -146 -970 )">
    <use xlink:href="#widget138" filter="url(#filter137)" />
    <use xlink:href="#widget138" />
  </g>
</svg>