<?xml version="1.0" encoding="utf-8"?>
<svg version="1.1" xmlns:xlink="http://www.w3.org/1999/xlink" width="12px" height="12px" viewBox="46 437  12 12" xmlns="http://www.w3.org/2000/svg">
  <path d="M 52 437  C 55.36 437  58 439.64  58 443  C 58 446.36  55.36 449  52 449  C 48.64 449  46 446.36  46 443  C 46 439.64  48.64 437  52 437  Z " fill-rule="nonzero" fill="#ffffff" stroke="none" />
  <path d="M 52 437.5  C 55.08 437.5  57.5 439.92  57.5 443  C 57.5 446.08  55.08 448.5  52 448.5  C 48.92 448.5  46.5 446.08  46.5 443  C 46.5 439.92  48.92 437.5  52 437.5  Z " stroke-width="1" stroke="#797979" fill="none" />
  <path d="M 52 446  C 50.32 446  49 444.68  49 443  C 49 441.32  50.32 440  52 440  C 53.68 440  55 441.32  55 443  C 55 444.68  53.68 446  52 446  " fill-rule="nonzero" fill="#797979" stroke="none" />
</svg>