<?xml version="1.0" encoding="utf-8"?>
<svg version="1.1" xmlns:xlink="http://www.w3.org/1999/xlink" width="12px" height="12px" viewBox="529 879  12 12" xmlns="http://www.w3.org/2000/svg">
  <path d="M 535 879  C 538.36 879  541 881.64  541 885  C 541 888.36  538.36 891  535 891  C 531.64 891  529 888.36  529 885  C 529 881.64  531.64 879  535 879  Z " fill-rule="nonzero" fill="#ffffff" stroke="none" />
  <path d="M 535 879.5  C 538.08 879.5  540.5 881.92  540.5 885  C 540.5 888.08  538.08 890.5  535 890.5  C 531.92 890.5  529.5 888.08  529.5 885  C 529.5 881.92  531.92 879.5  535 879.5  Z " stroke-width="1" stroke="#797979" fill="none" />
  <path d="M 535 888  C 533.32 888  532 886.68  532 885  C 532 883.32  533.32 882  535 882  C 536.68 882  538 883.32  538 885  C 538 886.68  536.68 888  535 888  " fill-rule="nonzero" fill="#797979" stroke="none" />
</svg>