<?xml version="1.0" encoding="utf-8"?>
<svg version="1.1" xmlns:xlink="http://www.w3.org/1999/xlink" width="12px" height="12px" viewBox="972 1196  12 12" xmlns="http://www.w3.org/2000/svg">
  <path d="M 978 1196  C 981.36 1196  984 1198.64  984 1202  C 984 1205.36  981.36 1208  978 1208  C 974.64 1208  972 1205.36  972 1202  C 972 1198.64  974.64 1196  978 1196  Z " fill-rule="nonzero" fill="#ffffff" stroke="none" />
  <path d="M 978 1196.5  C 981.08 1196.5  983.5 1198.92  983.5 1202  C 983.5 1205.08  981.08 1207.5  978 1207.5  C 974.92 1207.5  972.5 1205.08  972.5 1202  C 972.5 1198.92  974.92 1196.5  978 1196.5  Z " stroke-width="1" stroke="#797979" fill="none" />
  <path d="M 978 1205  C 976.32 1205  975 1203.68  975 1202  C 975 1200.32  976.32 1199  978 1199  C 979.68 1199  981 1200.32  981 1202  C 981 1203.68  979.68 1205  978 1205  " fill-rule="nonzero" fill="#797979" stroke="none" />
</svg>