<?xml version="1.0" encoding="utf-8"?>
<svg version="1.1" xmlns:xlink="http://www.w3.org/1999/xlink" width="12px" height="12px" viewBox="536 1668  12 12" xmlns="http://www.w3.org/2000/svg">
  <path d="M 542 1668  C 545.36 1668  548 1670.64  548 1674  C 548 1677.36  545.36 1680  542 1680  C 538.64 1680  536 1677.36  536 1674  C 536 1670.64  538.64 1668  542 1668  Z " fill-rule="nonzero" fill="#ffffff" stroke="none" />
  <path d="M 542 1668.5  C 545.08 1668.5  547.5 1670.92  547.5 1674  C 547.5 1677.08  545.08 1679.5  542 1679.5  C 538.92 1679.5  536.5 1677.08  536.5 1674  C 536.5 1670.92  538.92 1668.5  542 1668.5  Z " stroke-width="1" stroke="#797979" fill="none" />
  <path d="M 542 1677  C 540.32 1677  539 1675.68  539 1674  C 539 1672.32  540.32 1671  542 1671  C 543.68 1671  545 1672.32  545 1674  C 545 1675.68  543.68 1677  542 1677  " fill-rule="nonzero" fill="#797979" stroke="none" />
</svg>