<?xml version="1.0" encoding="utf-8"?>
<svg version="1.1" xmlns:xlink="http://www.w3.org/1999/xlink" width="12px" height="12px" viewBox="953 830  12 12" xmlns="http://www.w3.org/2000/svg">
  <path d="M 959 830  C 962.36 830  965 832.64  965 836  C 965 839.36  962.36 842  959 842  C 955.64 842  953 839.36  953 836  C 953 832.64  955.64 830  959 830  Z " fill-rule="nonzero" fill="#f0f0f0" stroke="none" />
  <path d="M 959 830.5  C 962.08 830.5  964.5 832.92  964.5 836  C 964.5 839.08  962.08 841.5  959 841.5  C 955.92 841.5  953.5 839.08  953.5 836  C 953.5 832.92  955.92 830.5  959 830.5  Z " stroke-width="1" stroke="#797979" fill="none" />
  <path d="M 959 839  C 957.32 839  956 837.68  956 836  C 956 834.32  957.32 833  959 833  C 960.68 833  962 834.32  962 836  C 962 837.68  960.68 839  959 839  " fill-rule="nonzero" fill="#797979" stroke="none" />
</svg>