<?xml version="1.0" encoding="utf-8"?>
<svg version="1.1" xmlns:xlink="http://www.w3.org/1999/xlink" width="12px" height="12px" viewBox="953 888  12 12" xmlns="http://www.w3.org/2000/svg">
  <path d="M 959 888  C 962.36 888  965 890.64  965 894  C 965 897.36  962.36 900  959 900  C 955.64 900  953 897.36  953 894  C 953 890.64  955.64 888  959 888  Z " fill-rule="nonzero" fill="#ffffff" stroke="none" />
  <path d="M 959 888.5  C 962.08 888.5  964.5 890.92  964.5 894  C 964.5 897.08  962.08 899.5  959 899.5  C 955.92 899.5  953.5 897.08  953.5 894  C 953.5 890.92  955.92 888.5  959 888.5  Z " stroke-width="1" stroke="#797979" fill="none" />
  <path d="M 959 897  C 957.32 897  956 895.68  956 894  C 956 892.32  957.32 891  959 891  C 960.68 891  962 892.32  962 894  C 962 895.68  960.68 897  959 897  " fill-rule="nonzero" fill="#797979" stroke="none" />
</svg>