<?xml version="1.0" encoding="utf-8"?>
<svg version="1.1" xmlns:xlink="http://www.w3.org/1999/xlink" width="12px" height="12px" viewBox="1057 1008  12 12" xmlns="http://www.w3.org/2000/svg">
  <path d="M 1063 1008  C 1066.36 1008  1069 1010.64  1069 1014  C 1069 1017.36  1066.36 1020  1063 1020  C 1059.64 1020  1057 1017.36  1057 1014  C 1057 1010.64  1059.64 1008  1063 1008  Z " fill-rule="nonzero" fill="#f0f0f0" stroke="none" />
  <path d="M 1063 1008.5  C 1066.08 1008.5  1068.5 1010.92  1068.5 1014  C 1068.5 1017.08  1066.08 1019.5  1063 1019.5  C 1059.92 1019.5  1057.5 1017.08  1057.5 1014  C 1057.5 1010.92  1059.92 1008.5  1063 1008.5  Z " stroke-width="1" stroke="#797979" fill="none" />
  <path d="M 1063 1017  C 1061.32 1017  1060 1015.68  1060 1014  C 1060 1012.32  1061.32 1011  1063 1011  C 1064.68 1011  1066 1012.32  1066 1014  C 1066 1015.68  1064.68 1017  1063 1017  " fill-rule="nonzero" fill="#797979" stroke="none" />
</svg>