<?xml version="1.0" encoding="utf-8"?>
<svg version="1.1" xmlns:xlink="http://www.w3.org/1999/xlink" width="12px" height="12px" viewBox="1054 1196  12 12" xmlns="http://www.w3.org/2000/svg">
  <path d="M 1060 1196  C 1063.36 1196  1066 1198.64  1066 1202  C 1066 1205.36  1063.36 1208  1060 1208  C 1056.64 1208  1054 1205.36  1054 1202  C 1054 1198.64  1056.64 1196  1060 1196  Z " fill-rule="nonzero" fill="#ffffff" stroke="none" />
  <path d="M 1060 1196.5  C 1063.08 1196.5  1065.5 1198.92  1065.5 1202  C 1065.5 1205.08  1063.08 1207.5  1060 1207.5  C 1056.92 1207.5  1054.5 1205.08  1054.5 1202  C 1054.5 1198.92  1056.92 1196.5  1060 1196.5  Z " stroke-width="1" stroke="#797979" fill="none" />
  <path d="M 1060 1205  C 1058.32 1205  1057 1203.68  1057 1202  C 1057 1200.32  1058.32 1199  1060 1199  C 1061.68 1199  1063 1200.32  1063 1202  C 1063 1203.68  1061.68 1205  1060 1205  " fill-rule="nonzero" fill="#797979" stroke="none" />
</svg>