<?xml version="1.0" encoding="utf-8"?>
<svg version="1.1" xmlns:xlink="http://www.w3.org/1999/xlink" width="12px" height="12px" viewBox="530 830  12 12" xmlns="http://www.w3.org/2000/svg">
  <path d="M 536 830  C 539.36 830  542 832.64  542 836  C 542 839.36  539.36 842  536 842  C 532.64 842  530 839.36  530 836  C 530 832.64  532.64 830  536 830  Z " fill-rule="nonzero" fill="#f0f0f0" stroke="none" />
  <path d="M 536 830.5  C 539.08 830.5  541.5 832.92  541.5 836  C 541.5 839.08  539.08 841.5  536 841.5  C 532.92 841.5  530.5 839.08  530.5 836  C 530.5 832.92  532.92 830.5  536 830.5  Z " stroke-width="1" stroke="#797979" fill="none" />
  <path d="M 536 839  C 534.32 839  533 837.68  533 836  C 533 834.32  534.32 833  536 833  C 537.68 833  539 834.32  539 836  C 539 837.68  537.68 839  536 839  " fill-rule="nonzero" fill="#797979" stroke="none" />
</svg>