<?xml version="1.0" encoding="utf-8"?>
<svg version="1.1" xmlns:xlink="http://www.w3.org/1999/xlink" width="12px" height="12px" viewBox="680 899  12 12" xmlns="http://www.w3.org/2000/svg">
  <path d="M 686 899  C 689.36 899  692 901.64  692 905  C 692 908.36  689.36 911  686 911  C 682.64 911  680 908.36  680 905  C 680 901.64  682.64 899  686 899  Z " fill-rule="nonzero" fill="#f0f0f0" stroke="none" />
  <path d="M 686 899.5  C 689.08 899.5  691.5 901.92  691.5 905  C 691.5 908.08  689.08 910.5  686 910.5  C 682.92 910.5  680.5 908.08  680.5 905  C 680.5 901.92  682.92 899.5  686 899.5  Z " stroke-width="1" stroke="#797979" fill="none" />
  <path d="M 686 908  C 684.32 908  683 906.68  683 905  C 683 903.32  684.32 902  686 902  C 687.68 902  689 903.32  689 905  C 689 906.68  687.68 908  686 908  " fill-rule="nonzero" fill="#797979" stroke="none" />
</svg>