<?xml version="1.0" encoding="utf-8"?>
<svg version="1.1" xmlns:xlink="http://www.w3.org/1999/xlink" width="12px" height="12px" viewBox="1056 1063  12 12" xmlns="http://www.w3.org/2000/svg">
  <path d="M 1062 1063  C 1065.36 1063  1068 1065.64  1068 1069  C 1068 1072.36  1065.36 1075  1062 1075  C 1058.64 1075  1056 1072.36  1056 1069  C 1056 1065.64  1058.64 1063  1062 1063  Z " fill-rule="nonzero" fill="#ffffff" stroke="none" />
  <path d="M 1062 1063.5  C 1065.08 1063.5  1067.5 1065.92  1067.5 1069  C 1067.5 1072.08  1065.08 1074.5  1062 1074.5  C 1058.92 1074.5  1056.5 1072.08  1056.5 1069  C 1056.5 1065.92  1058.92 1063.5  1062 1063.5  Z " stroke-width="1" stroke="#797979" fill="none" />
  <path d="M 1062 1072  C 1060.32 1072  1059 1070.68  1059 1069  C 1059 1067.32  1060.32 1066  1062 1066  C 1063.68 1066  1065 1067.32  1065 1069  C 1065 1070.68  1063.68 1072  1062 1072  " fill-rule="nonzero" fill="#797979" stroke="none" />
</svg>