<?xml version="1.0" encoding="utf-8"?>
<svg version="1.1" xmlns:xlink="http://www.w3.org/1999/xlink" width="12px" height="12px" viewBox="529 1008  12 12" xmlns="http://www.w3.org/2000/svg">
  <path d="M 535 1008  C 538.36 1008  541 1010.64  541 1014  C 541 1017.36  538.36 1020  535 1020  C 531.64 1020  529 1017.36  529 1014  C 529 1010.64  531.64 1008  535 1008  Z " fill-rule="nonzero" fill="#f0f0f0" stroke="none" />
  <path d="M 535 1008.5  C 538.08 1008.5  540.5 1010.92  540.5 1014  C 540.5 1017.08  538.08 1019.5  535 1019.5  C 531.92 1019.5  529.5 1017.08  529.5 1014  C 529.5 1010.92  531.92 1008.5  535 1008.5  Z " stroke-width="1" stroke="#797979" fill="none" />
  <path d="M 535 1017  C 533.32 1017  532 1015.68  532 1014  C 532 1012.32  533.32 1011  535 1011  C 536.68 1011  538 1012.32  538 1014  C 538 1015.68  536.68 1017  535 1017  " fill-rule="nonzero" fill="#797979" stroke="none" />
</svg>