<?xml version="1.0" encoding="utf-8"?>
<svg version="1.1" xmlns:xlink="http://www.w3.org/1999/xlink" width="12px" height="12px" viewBox="974 1063  12 12" xmlns="http://www.w3.org/2000/svg">
  <path d="M 980 1063  C 983.36 1063  986 1065.64  986 1069  C 986 1072.36  983.36 1075  980 1075  C 976.64 1075  974 1072.36  974 1069  C 974 1065.64  976.64 1063  980 1063  Z " fill-rule="nonzero" fill="#ffffff" stroke="none" />
  <path d="M 980 1063.5  C 983.08 1063.5  985.5 1065.92  985.5 1069  C 985.5 1072.08  983.08 1074.5  980 1074.5  C 976.92 1074.5  974.5 1072.08  974.5 1069  C 974.5 1065.92  976.92 1063.5  980 1063.5  Z " stroke-width="1" stroke="#797979" fill="none" />
  <path d="M 980 1072  C 978.32 1072  977 1070.68  977 1069  C 977 1067.32  978.32 1066  980 1066  C 981.68 1066  983 1067.32  983 1069  C 983 1070.68  981.68 1072  980 1072  " fill-rule="nonzero" fill="#797979" stroke="none" />
</svg>