<?xml version="1.0" encoding="utf-8"?>
<svg version="1.1" xmlns:xlink="http://www.w3.org/1999/xlink" width="12px" height="12px" viewBox="1185 957  12 12" xmlns="http://www.w3.org/2000/svg">
  <path d="M 1191 957  C 1194.36 957  1197 959.64  1197 963  C 1197 966.36  1194.36 969  1191 969  C 1187.64 969  1185 966.36  1185 963  C 1185 959.64  1187.64 957  1191 957  Z " fill-rule="nonzero" fill="#ffffff" stroke="none" />
  <path d="M 1191 957.5  C 1194.08 957.5  1196.5 959.92  1196.5 963  C 1196.5 966.08  1194.08 968.5  1191 968.5  C 1187.92 968.5  1185.5 966.08  1185.5 963  C 1185.5 959.92  1187.92 957.5  1191 957.5  Z " stroke-width="1" stroke="#797979" fill="none" />
  <path d="M 1191 966  C 1189.32 966  1188 964.68  1188 963  C 1188 961.32  1189.32 960  1191 960  C 1192.68 960  1194 961.32  1194 963  C 1194 964.68  1192.68 966  1191 966  " fill-rule="nonzero" fill="#797979" stroke="none" />
</svg>