<?xml version="1.0" encoding="utf-8"?>
<svg version="1.1" xmlns:xlink="http://www.w3.org/1999/xlink" width="12px" height="12px" viewBox="761 948  12 12" xmlns="http://www.w3.org/2000/svg">
  <path d="M 767 948  C 770.36 948  773 950.64  773 954  C 773 957.36  770.36 960  767 960  C 763.64 960  761 957.36  761 954  C 761 950.64  763.64 948  767 948  Z " fill-rule="nonzero" fill="#f0f0f0" stroke="none" />
  <path d="M 767 948.5  C 770.08 948.5  772.5 950.92  772.5 954  C 772.5 957.08  770.08 959.5  767 959.5  C 763.92 959.5  761.5 957.08  761.5 954  C 761.5 950.92  763.92 948.5  767 948.5  Z " stroke-width="1" stroke="#797979" fill="none" />
  <path d="M 767 957  C 765.32 957  764 955.68  764 954  C 764 952.32  765.32 951  767 951  C 768.68 951  770 952.32  770 954  C 770 955.68  768.68 957  767 957  " fill-rule="nonzero" fill="#797979" stroke="none" />
</svg>