<?xml version="1.0" encoding="utf-8"?>
<svg version="1.1" xmlns:xlink="http://www.w3.org/1999/xlink" width="12px" height="12px" viewBox="679 948  12 12" xmlns="http://www.w3.org/2000/svg">
  <path d="M 685 948  C 688.36 948  691 950.64  691 954  C 691 957.36  688.36 960  685 960  C 681.64 960  679 957.36  679 954  C 679 950.64  681.64 948  685 948  Z " fill-rule="nonzero" fill="#ffffff" stroke="none" />
  <path d="M 685 948.5  C 688.08 948.5  690.5 950.92  690.5 954  C 690.5 957.08  688.08 959.5  685 959.5  C 681.92 959.5  679.5 957.08  679.5 954  C 679.5 950.92  681.92 948.5  685 948.5  Z " stroke-width="1" stroke="#797979" fill="none" />
  <path d="M 685 957  C 683.32 957  682 955.68  682 954  C 682 952.32  683.32 951  685 951  C 686.68 951  688 952.32  688 954  C 688 955.68  686.68 957  685 957  " fill-rule="nonzero" fill="#797979" stroke="none" />
</svg>