<?xml version="1.0" encoding="utf-8"?>
<svg version="1.1" xmlns:xlink="http://www.w3.org/1999/xlink" width="12px" height="12px" viewBox="1267 899  12 12" xmlns="http://www.w3.org/2000/svg">
  <path d="M 1273 899  C 1276.36 899  1279 901.64  1279 905  C 1279 908.36  1276.36 911  1273 911  C 1269.64 911  1267 908.36  1267 905  C 1267 901.64  1269.64 899  1273 899  Z " fill-rule="nonzero" fill="#f0f0f0" stroke="none" />
  <path d="M 1273 899.5  C 1276.08 899.5  1278.5 901.92  1278.5 905  C 1278.5 908.08  1276.08 910.5  1273 910.5  C 1269.92 910.5  1267.5 908.08  1267.5 905  C 1267.5 901.92  1269.92 899.5  1273 899.5  Z " stroke-width="1" stroke="#797979" fill="none" />
  <path d="M 1273 908  C 1271.32 908  1270 906.68  1270 905  C 1270 903.32  1271.32 902  1273 902  C 1274.68 902  1276 903.32  1276 905  C 1276 906.68  1274.68 908  1273 908  " fill-rule="nonzero" fill="#797979" stroke="none" />
</svg>