<?xml version="1.0" encoding="utf-8"?>
<svg version="1.1" xmlns:xlink="http://www.w3.org/1999/xlink" width="12px" height="12px" viewBox="1207 1077  12 12" xmlns="http://www.w3.org/2000/svg">
  <path d="M 1213 1077  C 1216.36 1077  1219 1079.64  1219 1083  C 1219 1086.36  1216.36 1089  1213 1089  C 1209.64 1089  1207 1086.36  1207 1083  C 1207 1079.64  1209.64 1077  1213 1077  Z " fill-rule="nonzero" fill="#ffffff" stroke="none" />
  <path d="M 1213 1077.5  C 1216.08 1077.5  1218.5 1079.92  1218.5 1083  C 1218.5 1086.08  1216.08 1088.5  1213 1088.5  C 1209.92 1088.5  1207.5 1086.08  1207.5 1083  C 1207.5 1079.92  1209.92 1077.5  1213 1077.5  Z " stroke-width="1" stroke="#797979" fill="none" />
  <path d="M 1213 1086  C 1211.32 1086  1210 1084.68  1210 1083  C 1210 1081.32  1211.32 1080  1213 1080  C 1214.68 1080  1216 1081.32  1216 1083  C 1216 1084.68  1214.68 1086  1213 1086  " fill-rule="nonzero" fill="#797979" stroke="none" />
</svg>