<?xml version="1.0" encoding="utf-8"?>
<svg version="1.1" xmlns:xlink="http://www.w3.org/1999/xlink" width="12px" height="12px" viewBox="975 1529  12 12" xmlns="http://www.w3.org/2000/svg">
  <path d="M 981 1529  C 984.36 1529  987 1531.64  987 1535  C 987 1538.36  984.36 1541  981 1541  C 977.64 1541  975 1538.36  975 1535  C 975 1531.64  977.64 1529  981 1529  Z " fill-rule="nonzero" fill="#f0f0f0" stroke="none" />
  <path d="M 981 1529.5  C 984.08 1529.5  986.5 1531.92  986.5 1535  C 986.5 1538.08  984.08 1540.5  981 1540.5  C 977.92 1540.5  975.5 1538.08  975.5 1535  C 975.5 1531.92  977.92 1529.5  981 1529.5  Z " stroke-width="1" stroke="#797979" fill="none" />
  <path d="M 981 1538  C 979.32 1538  978 1536.68  978 1535  C 978 1533.32  979.32 1532  981 1532  C 982.68 1532  984 1533.32  984 1535  C 984 1536.68  982.68 1538  981 1538  " fill-rule="nonzero" fill="#797979" stroke="none" />
</svg>