<?xml version="1.0" encoding="utf-8"?>
<svg version="1.1" xmlns:xlink="http://www.w3.org/1999/xlink" width="12px" height="12px" viewBox="1289 1077  12 12" xmlns="http://www.w3.org/2000/svg">
  <path d="M 1295 1077  C 1298.36 1077  1301 1079.64  1301 1083  C 1301 1086.36  1298.36 1089  1295 1089  C 1291.64 1089  1289 1086.36  1289 1083  C 1289 1079.64  1291.64 1077  1295 1077  Z " fill-rule="nonzero" fill="#f0f0f0" stroke="none" />
  <path d="M 1295 1077.5  C 1298.08 1077.5  1300.5 1079.92  1300.5 1083  C 1300.5 1086.08  1298.08 1088.5  1295 1088.5  C 1291.92 1088.5  1289.5 1086.08  1289.5 1083  C 1289.5 1079.92  1291.92 1077.5  1295 1077.5  Z " stroke-width="1" stroke="#797979" fill="none" />
  <path d="M 1295 1086  C 1293.32 1086  1292 1084.68  1292 1083  C 1292 1081.32  1293.32 1080  1295 1080  C 1296.68 1080  1298 1081.32  1298 1083  C 1298 1084.68  1296.68 1086  1295 1086  " fill-rule="nonzero" fill="#797979" stroke="none" />
</svg>