<?xml version="1.0" encoding="utf-8"?>
<svg version="1.1" xmlns:xlink="http://www.w3.org/1999/xlink" width="12px" height="12px" viewBox="1204 1265  12 12" xmlns="http://www.w3.org/2000/svg">
  <path d="M 1210 1265  C 1213.36 1265  1216 1267.64  1216 1271  C 1216 1274.36  1213.36 1277  1210 1277  C 1206.64 1277  1204 1274.36  1204 1271  C 1204 1267.64  1206.64 1265  1210 1265  Z " fill-rule="nonzero" fill="#f0f0f0" stroke="none" />
  <path d="M 1210 1265.5  C 1213.08 1265.5  1215.5 1267.92  1215.5 1271  C 1215.5 1274.08  1213.08 1276.5  1210 1276.5  C 1206.92 1276.5  1204.5 1274.08  1204.5 1271  C 1204.5 1267.92  1206.92 1265.5  1210 1265.5  Z " stroke-width="1" stroke="#797979" fill="none" />
  <path d="M 1210 1274  C 1208.32 1274  1207 1272.68  1207 1271  C 1207 1269.32  1208.32 1268  1210 1268  C 1211.68 1268  1213 1269.32  1213 1271  C 1213 1272.68  1211.68 1274  1210 1274  " fill-rule="nonzero" fill="#797979" stroke="none" />
</svg>