<?xml version="1.0" encoding="utf-8"?>
<svg version="1.1" xmlns:xlink="http://www.w3.org/1999/xlink" width="12px" height="12px" viewBox="1286 1265  12 12" xmlns="http://www.w3.org/2000/svg">
  <path d="M 1292 1265  C 1295.36 1265  1298 1267.64  1298 1271  C 1298 1274.36  1295.36 1277  1292 1277  C 1288.64 1277  1286 1274.36  1286 1271  C 1286 1267.64  1288.64 1265  1292 1265  Z " fill-rule="nonzero" fill="#f0f0f0" stroke="none" />
  <path d="M 1292 1265.5  C 1295.08 1265.5  1297.5 1267.92  1297.5 1271  C 1297.5 1274.08  1295.08 1276.5  1292 1276.5  C 1288.92 1276.5  1286.5 1274.08  1286.5 1271  C 1286.5 1267.92  1288.92 1265.5  1292 1265.5  Z " stroke-width="1" stroke="#797979" fill="none" />
  <path d="M 1292 1274  C 1290.32 1274  1289 1272.68  1289 1271  C 1289 1269.32  1290.32 1268  1292 1268  C 1293.68 1268  1295 1269.32  1295 1271  C 1295 1272.68  1293.68 1274  1292 1274  " fill-rule="nonzero" fill="#797979" stroke="none" />
</svg>