<?xml version="1.0" encoding="utf-8"?>
<svg version="1.1" xmlns:xlink="http://www.w3.org/1999/xlink" width="12px" height="12px" viewBox="529 1137  12 12" xmlns="http://www.w3.org/2000/svg">
  <path d="M 535 1137  C 538.36 1137  541 1139.64  541 1143  C 541 1146.36  538.36 1149  535 1149  C 531.64 1149  529 1146.36  529 1143  C 529 1139.64  531.64 1137  535 1137  Z " fill-rule="nonzero" fill="#ffffff" stroke="none" />
  <path d="M 535 1137.5  C 538.08 1137.5  540.5 1139.92  540.5 1143  C 540.5 1146.08  538.08 1148.5  535 1148.5  C 531.92 1148.5  529.5 1146.08  529.5 1143  C 529.5 1139.92  531.92 1137.5  535 1137.5  Z " stroke-width="1" stroke="#797979" fill="none" />
  <path d="M 535 1146  C 533.32 1146  532 1144.68  532 1143  C 532 1141.32  533.32 1140  535 1140  C 536.68 1140  538 1141.32  538 1143  C 538 1144.68  536.68 1146  535 1146  " fill-rule="nonzero" fill="#797979" stroke="none" />
</svg>