<?xml version="1.0" encoding="utf-8"?>
<svg version="1.1" xmlns:xlink="http://www.w3.org/1999/xlink" width="12px" height="12px" viewBox="452 1395  12 12" xmlns="http://www.w3.org/2000/svg">
  <path d="M 458 1395  C 461.36 1395  464 1397.64  464 1401  C 464 1404.36  461.36 1407  458 1407  C 454.64 1407  452 1404.36  452 1401  C 452 1397.64  454.64 1395  458 1395  Z " fill-rule="nonzero" fill="#ffffff" stroke="none" />
  <path d="M 458 1395.5  C 461.08 1395.5  463.5 1397.92  463.5 1401  C 463.5 1404.08  461.08 1406.5  458 1406.5  C 454.92 1406.5  452.5 1404.08  452.5 1401  C 452.5 1397.92  454.92 1395.5  458 1395.5  Z " stroke-width="1" stroke="#797979" fill="none" />
  <path d="M 458 1404  C 456.32 1404  455 1402.68  455 1401  C 455 1399.32  456.32 1398  458 1398  C 459.68 1398  461 1399.32  461 1401  C 461 1402.68  459.68 1404  458 1404  " fill-rule="nonzero" fill="#797979" stroke="none" />
</svg>