<?xml version="1.0" encoding="utf-8"?>
<svg version="1.1" xmlns:xlink="http://www.w3.org/1999/xlink" width="12px" height="12px" viewBox="1061 1669  12 12" xmlns="http://www.w3.org/2000/svg">
  <path d="M 1067 1669  C 1070.36 1669  1073 1671.64  1073 1675  C 1073 1678.36  1070.36 1681  1067 1681  C 1063.64 1681  1061 1678.36  1061 1675  C 1061 1671.64  1063.64 1669  1067 1669  Z " fill-rule="nonzero" fill="#ffffff" stroke="none" />
  <path d="M 1067 1669.5  C 1070.08 1669.5  1072.5 1671.92  1072.5 1675  C 1072.5 1678.08  1070.08 1680.5  1067 1680.5  C 1063.92 1680.5  1061.5 1678.08  1061.5 1675  C 1061.5 1671.92  1063.92 1669.5  1067 1669.5  Z " stroke-width="1" stroke="#797979" fill="none" />
  <path d="M 1067 1678  C 1065.32 1678  1064 1676.68  1064 1675  C 1064 1673.32  1065.32 1672  1067 1672  C 1068.68 1672  1070 1673.32  1070 1675  C 1070 1676.68  1068.68 1678  1067 1678  " fill-rule="nonzero" fill="#797979" stroke="none" />
</svg>