<?xml version="1.0" encoding="utf-8"?>
<svg version="1.1" xmlns:xlink="http://www.w3.org/1999/xlink" width="12px" height="12px" viewBox="679 1077  12 12" xmlns="http://www.w3.org/2000/svg">
  <path d="M 685 1077  C 688.36 1077  691 1079.64  691 1083  C 691 1086.36  688.36 1089  685 1089  C 681.64 1089  679 1086.36  679 1083  C 679 1079.64  681.64 1077  685 1077  Z " fill-rule="nonzero" fill="#ffffff" stroke="none" />
  <path d="M 685 1077.5  C 688.08 1077.5  690.5 1079.92  690.5 1083  C 690.5 1086.08  688.08 1088.5  685 1088.5  C 681.92 1088.5  679.5 1086.08  679.5 1083  C 679.5 1079.92  681.92 1077.5  685 1077.5  Z " stroke-width="1" stroke="#797979" fill="none" />
  <path d="M 685 1086  C 683.32 1086  682 1084.68  682 1083  C 682 1081.32  683.32 1080  685 1080  C 686.68 1080  688 1081.32  688 1083  C 688 1084.68  686.68 1086  685 1086  " fill-rule="nonzero" fill="#797979" stroke="none" />
</svg>