<?xml version="1.0" encoding="utf-8"?>
<svg version="1.1" xmlns:xlink="http://www.w3.org/1999/xlink" width="12px" height="12px" viewBox="1059 1396  12 12" xmlns="http://www.w3.org/2000/svg">
  <path d="M 1065 1396  C 1068.36 1396  1071 1398.64  1071 1402  C 1071 1405.36  1068.36 1408  1065 1408  C 1061.64 1408  1059 1405.36  1059 1402  C 1059 1398.64  1061.64 1396  1065 1396  Z " fill-rule="nonzero" fill="#f0f0f0" stroke="none" />
  <path d="M 1065 1396.5  C 1068.08 1396.5  1070.5 1398.92  1070.5 1402  C 1070.5 1405.08  1068.08 1407.5  1065 1407.5  C 1061.92 1407.5  1059.5 1405.08  1059.5 1402  C 1059.5 1398.92  1061.92 1396.5  1065 1396.5  Z " stroke-width="1" stroke="#797979" fill="none" />
  <path d="M 1065 1405  C 1063.32 1405  1062 1403.68  1062 1402  C 1062 1400.32  1063.32 1399  1065 1399  C 1066.68 1399  1068 1400.32  1068 1402  C 1068 1403.68  1066.68 1405  1065 1405  " fill-rule="nonzero" fill="#797979" stroke="none" />
</svg>