<?xml version="1.0" encoding="utf-8"?>
<svg version="1.1" xmlns:xlink="http://www.w3.org/1999/xlink" width="12px" height="12px" viewBox="761 1206  12 12" xmlns="http://www.w3.org/2000/svg">
  <path d="M 767 1206  C 770.36 1206  773 1208.64  773 1212  C 773 1215.36  770.36 1218  767 1218  C 763.64 1218  761 1215.36  761 1212  C 761 1208.64  763.64 1206  767 1206  Z " fill-rule="nonzero" fill="#ffffff" stroke="none" />
  <path d="M 767 1206.5  C 770.08 1206.5  772.5 1208.92  772.5 1212  C 772.5 1215.08  770.08 1217.5  767 1217.5  C 763.92 1217.5  761.5 1215.08  761.5 1212  C 761.5 1208.92  763.92 1206.5  767 1206.5  Z " stroke-width="1" stroke="#797979" fill="none" />
  <path d="M 767 1215  C 765.32 1215  764 1213.68  764 1212  C 764 1210.32  765.32 1209  767 1209  C 768.68 1209  770 1210.32  770 1212  C 770 1213.68  768.68 1215  767 1215  " fill-rule="nonzero" fill="#797979" stroke="none" />
</svg>