<?xml version="1.0" encoding="utf-8"?>
<svg version="1.1" xmlns:xlink="http://www.w3.org/1999/xlink" width="12px" height="12px" viewBox="977 1396  12 12" xmlns="http://www.w3.org/2000/svg">
  <path d="M 983 1396  C 986.36 1396  989 1398.64  989 1402  C 989 1405.36  986.36 1408  983 1408  C 979.64 1408  977 1405.36  977 1402  C 977 1398.64  979.64 1396  983 1396  Z " fill-rule="nonzero" fill="#f0f0f0" stroke="none" />
  <path d="M 983 1396.5  C 986.08 1396.5  988.5 1398.92  988.5 1402  C 988.5 1405.08  986.08 1407.5  983 1407.5  C 979.92 1407.5  977.5 1405.08  977.5 1402  C 977.5 1398.92  979.92 1396.5  983 1396.5  Z " stroke-width="1" stroke="#797979" fill="none" />
  <path d="M 983 1405  C 981.32 1405  980 1403.68  980 1402  C 980 1400.32  981.32 1399  983 1399  C 984.68 1399  986 1400.32  986 1402  C 986 1403.68  984.68 1405  983 1405  " fill-rule="nonzero" fill="#797979" stroke="none" />
</svg>