<?xml version="1.0" encoding="utf-8"?>
<svg version="1.1" xmlns:xlink="http://www.w3.org/1999/xlink" width="12px" height="12px" viewBox="534 1395  12 12" xmlns="http://www.w3.org/2000/svg">
  <path d="M 540 1395  C 543.36 1395  546 1397.64  546 1401  C 546 1404.36  543.36 1407  540 1407  C 536.64 1407  534 1404.36  534 1401  C 534 1397.64  536.64 1395  540 1395  Z " fill-rule="nonzero" fill="#ffffff" stroke="none" />
  <path d="M 540 1395.5  C 543.08 1395.5  545.5 1397.92  545.5 1401  C 545.5 1404.08  543.08 1406.5  540 1406.5  C 536.92 1406.5  534.5 1404.08  534.5 1401  C 534.5 1397.92  536.92 1395.5  540 1395.5  Z " stroke-width="1" stroke="#797979" fill="none" />
  <path d="M 540 1404  C 538.32 1404  537 1402.68  537 1401  C 537 1399.32  538.32 1398  540 1398  C 541.68 1398  543 1399.32  543 1401  C 543 1402.68  541.68 1404  540 1404  " fill-rule="nonzero" fill="#797979" stroke="none" />
</svg>