<?xml version="1.0" encoding="utf-8"?>
<svg version="1.1" xmlns:xlink="http://www.w3.org/1999/xlink" width="12px" height="12px" viewBox="454 1806  12 12" xmlns="http://www.w3.org/2000/svg">
  <path d="M 460 1806  C 463.36 1806  466 1808.64  466 1812  C 466 1815.36  463.36 1818  460 1818  C 456.64 1818  454 1815.36  454 1812  C 454 1808.64  456.64 1806  460 1806  Z " fill-rule="nonzero" fill="#ffffff" stroke="none" />
  <path d="M 460 1806.5  C 463.08 1806.5  465.5 1808.92  465.5 1812  C 465.5 1815.08  463.08 1817.5  460 1817.5  C 456.92 1817.5  454.5 1815.08  454.5 1812  C 454.5 1808.92  456.92 1806.5  460 1806.5  Z " stroke-width="1" stroke="#797979" fill="none" />
  <path d="M 460 1815  C 458.32 1815  457 1813.68  457 1812  C 457 1810.32  458.32 1809  460 1809  C 461.68 1809  463 1810.32  463 1812  C 463 1813.68  461.68 1815  460 1815  " fill-rule="nonzero" fill="#797979" stroke="none" />
</svg>