<?xml version="1.0" encoding="utf-8"?>
<svg version="1.1" xmlns:xlink="http://www.w3.org/1999/xlink" width="12px" height="12px" viewBox="456 1535  12 12" xmlns="http://www.w3.org/2000/svg">
  <path d="M 462 1535  C 465.36 1535  468 1537.64  468 1541  C 468 1544.36  465.36 1547  462 1547  C 458.64 1547  456 1544.36  456 1541  C 456 1537.64  458.64 1535  462 1535  Z " fill-rule="nonzero" fill="#ffffff" stroke="none" />
  <path d="M 462 1535.5  C 465.08 1535.5  467.5 1537.92  467.5 1541  C 467.5 1544.08  465.08 1546.5  462 1546.5  C 458.92 1546.5  456.5 1544.08  456.5 1541  C 456.5 1537.92  458.92 1535.5  462 1535.5  Z " stroke-width="1" stroke="#797979" fill="none" />
  <path d="M 462 1544  C 460.32 1544  459 1542.68  459 1541  C 459 1539.32  460.32 1538  462 1538  C 463.68 1538  465 1539.32  465 1541  C 465 1542.68  463.68 1544  462 1544  " fill-rule="nonzero" fill="#797979" stroke="none" />
</svg>