<?xml version="1.0" encoding="utf-8"?>
<svg version="1.1" xmlns:xlink="http://www.w3.org/1999/xlink" width="12px" height="12px" viewBox="679 1206  12 12" xmlns="http://www.w3.org/2000/svg">
  <path d="M 685 1206  C 688.36 1206  691 1208.64  691 1212  C 691 1215.36  688.36 1218  685 1218  C 681.64 1218  679 1215.36  679 1212  C 679 1208.64  681.64 1206  685 1206  Z " fill-rule="nonzero" fill="#ffffff" stroke="none" />
  <path d="M 685 1206.5  C 688.08 1206.5  690.5 1208.92  690.5 1212  C 690.5 1215.08  688.08 1217.5  685 1217.5  C 681.92 1217.5  679.5 1215.08  679.5 1212  C 679.5 1208.92  681.92 1206.5  685 1206.5  Z " stroke-width="1" stroke="#797979" fill="none" />
  <path d="M 685 1215  C 683.32 1215  682 1213.68  682 1212  C 682 1210.32  683.32 1209  685 1209  C 686.68 1209  688 1210.32  688 1212  C 688 1213.68  686.68 1215  685 1215  " fill-rule="nonzero" fill="#797979" stroke="none" />
</svg>