<?xml version="1.0" encoding="utf-8"?>
<svg version="1.1" xmlns:xlink="http://www.w3.org/1999/xlink" width="12px" height="12px" viewBox="1057 1529  12 12" xmlns="http://www.w3.org/2000/svg">
  <path d="M 1063 1529  C 1066.36 1529  1069 1531.64  1069 1535  C 1069 1538.36  1066.36 1541  1063 1541  C 1059.64 1541  1057 1538.36  1057 1535  C 1057 1531.64  1059.64 1529  1063 1529  Z " fill-rule="nonzero" fill="#f0f0f0" stroke="none" />
  <path d="M 1063 1529.5  C 1066.08 1529.5  1068.5 1531.92  1068.5 1535  C 1068.5 1538.08  1066.08 1540.5  1063 1540.5  C 1059.92 1540.5  1057.5 1538.08  1057.5 1535  C 1057.5 1531.92  1059.92 1529.5  1063 1529.5  Z " stroke-width="1" stroke="#797979" fill="none" />
  <path d="M 1063 1538  C 1061.32 1538  1060 1536.68  1060 1535  C 1060 1533.32  1061.32 1532  1063 1532  C 1064.68 1532  1066 1533.32  1066 1535  C 1066 1536.68  1064.68 1538  1063 1538  " fill-rule="nonzero" fill="#797979" stroke="none" />
</svg>