<?xml version="1.0" encoding="utf-8"?>
<svg version="1.1" xmlns:xlink="http://www.w3.org/1999/xlink" width="12px" height="12px" viewBox="454 1668  12 12" xmlns="http://www.w3.org/2000/svg">
  <path d="M 460 1668  C 463.36 1668  466 1670.64  466 1674  C 466 1677.36  463.36 1680  460 1680  C 456.64 1680  454 1677.36  454 1674  C 454 1670.64  456.64 1668  460 1668  Z " fill-rule="nonzero" fill="#f0f0f0" stroke="none" />
  <path d="M 460 1668.5  C 463.08 1668.5  465.5 1670.92  465.5 1674  C 465.5 1677.08  463.08 1679.5  460 1679.5  C 456.92 1679.5  454.5 1677.08  454.5 1674  C 454.5 1670.92  456.92 1668.5  460 1668.5  Z " stroke-width="1" stroke="#797979" fill="none" />
  <path d="M 460 1677  C 458.32 1677  457 1675.68  457 1674  C 457 1672.32  458.32 1671  460 1671  C 461.68 1671  463 1672.32  463 1674  C 463 1675.68  461.68 1677  460 1677  " fill-rule="nonzero" fill="#797979" stroke="none" />
</svg>