<?xml version="1.0" encoding="utf-8"?>
<svg version="1.1" xmlns:xlink="http://www.w3.org/1999/xlink" width="12px" height="12px" viewBox="1063 1536  12 12" xmlns="http://www.w3.org/2000/svg">
  <path d="M 1069 1536  C 1072.36 1536  1075 1538.64  1075 1542  C 1075 1545.36  1072.36 1548  1069 1548  C 1065.64 1548  1063 1545.36  1063 1542  C 1063 1538.64  1065.64 1536  1069 1536  Z " fill-rule="nonzero" fill="#f0f0f0" stroke="none" />
  <path d="M 1069 1536.5  C 1072.08 1536.5  1074.5 1538.92  1074.5 1542  C 1074.5 1545.08  1072.08 1547.5  1069 1547.5  C 1065.92 1547.5  1063.5 1545.08  1063.5 1542  C 1063.5 1538.92  1065.92 1536.5  1069 1536.5  Z " stroke-width="1" stroke="#797979" fill="none" />
  <path d="M 1069 1545  C 1067.32 1545  1066 1543.68  1066 1542  C 1066 1540.32  1067.32 1539  1069 1539  C 1070.68 1539  1072 1540.32  1072 1542  C 1072 1543.68  1070.68 1545  1069 1545  " fill-rule="nonzero" fill="#797979" stroke="none" />
</svg>