<?xml version="1.0" encoding="utf-8"?>
<svg version="1.1" xmlns:xlink="http://www.w3.org/1999/xlink" width="12px" height="12px" viewBox="981 1536  12 12" xmlns="http://www.w3.org/2000/svg">
  <path d="M 987 1536  C 990.36 1536  993 1538.64  993 1542  C 993 1545.36  990.36 1548  987 1548  C 983.64 1548  981 1545.36  981 1542  C 981 1538.64  983.64 1536  987 1536  Z " fill-rule="nonzero" fill="#f0f0f0" stroke="none" />
  <path d="M 987 1536.5  C 990.08 1536.5  992.5 1538.92  992.5 1542  C 992.5 1545.08  990.08 1547.5  987 1547.5  C 983.92 1547.5  981.5 1545.08  981.5 1542  C 981.5 1538.92  983.92 1536.5  987 1536.5  Z " stroke-width="1" stroke="#797979" fill="none" />
  <path d="M 987 1545  C 985.32 1545  984 1543.68  984 1542  C 984 1540.32  985.32 1539  987 1539  C 988.68 1539  990 1540.32  990 1542  C 990 1543.68  988.68 1545  987 1545  " fill-rule="nonzero" fill="#797979" stroke="none" />
</svg>