<?xml version="1.0" encoding="utf-8"?>
<svg version="1.1" xmlns:xlink="http://www.w3.org/1999/xlink" width="12px" height="12px" viewBox="456 1673  12 12" xmlns="http://www.w3.org/2000/svg">
  <path d="M 462 1673  C 465.36 1673  468 1675.64  468 1679  C 468 1682.36  465.36 1685  462 1685  C 458.64 1685  456 1682.36  456 1679  C 456 1675.64  458.64 1673  462 1673  Z " fill-rule="nonzero" fill="#ffffff" stroke="none" />
  <path d="M 462 1673.5  C 465.08 1673.5  467.5 1675.92  467.5 1679  C 467.5 1682.08  465.08 1684.5  462 1684.5  C 458.92 1684.5  456.5 1682.08  456.5 1679  C 456.5 1675.92  458.92 1673.5  462 1673.5  Z " stroke-width="1" stroke="#797979" fill="none" />
  <path d="M 462 1682  C 460.32 1682  459 1680.68  459 1679  C 459 1677.32  460.32 1676  462 1676  C 463.68 1676  465 1677.32  465 1679  C 465 1680.68  463.68 1682  462 1682  " fill-rule="nonzero" fill="#797979" stroke="none" />
</svg>