<?xml version="1.0" encoding="utf-8"?>
<svg version="1.1" xmlns:xlink="http://www.w3.org/1999/xlink" width="12px" height="12px" viewBox="1207 1598  12 12" xmlns="http://www.w3.org/2000/svg">
  <path d="M 1213 1598  C 1216.36 1598  1219 1600.64  1219 1604  C 1219 1607.36  1216.36 1610  1213 1610  C 1209.64 1610  1207 1607.36  1207 1604  C 1207 1600.64  1209.64 1598  1213 1598  Z " fill-rule="nonzero" fill="#ffffff" stroke="none" />
  <path d="M 1213 1598.5  C 1216.08 1598.5  1218.5 1600.92  1218.5 1604  C 1218.5 1607.08  1216.08 1609.5  1213 1609.5  C 1209.92 1609.5  1207.5 1607.08  1207.5 1604  C 1207.5 1600.92  1209.92 1598.5  1213 1598.5  Z " stroke-width="1" stroke="#797979" fill="none" />
  <path d="M 1213 1607  C 1211.32 1607  1210 1605.68  1210 1604  C 1210 1602.32  1211.32 1601  1213 1601  C 1214.68 1601  1216 1602.32  1216 1604  C 1216 1605.68  1214.68 1607  1213 1607  " fill-rule="nonzero" fill="#797979" stroke="none" />
</svg>