<?xml version="1.0" encoding="utf-8"?>
<svg version="1.1" xmlns:xlink="http://www.w3.org/1999/xlink" width="12px" height="12px" viewBox="686 1737  12 12" xmlns="http://www.w3.org/2000/svg">
  <path d="M 692 1737  C 695.36 1737  698 1739.64  698 1743  C 698 1746.36  695.36 1749  692 1749  C 688.64 1749  686 1746.36  686 1743  C 686 1739.64  688.64 1737  692 1737  Z " fill-rule="nonzero" fill="#f0f0f0" stroke="none" />
  <path d="M 692 1737.5  C 695.08 1737.5  697.5 1739.92  697.5 1743  C 697.5 1746.08  695.08 1748.5  692 1748.5  C 688.92 1748.5  686.5 1746.08  686.5 1743  C 686.5 1739.92  688.92 1737.5  692 1737.5  Z " stroke-width="1" stroke="#797979" fill="none" />
  <path d="M 692 1746  C 690.32 1746  689 1744.68  689 1743  C 689 1741.32  690.32 1740  692 1740  C 693.68 1740  695 1741.32  695 1743  C 695 1744.68  693.68 1746  692 1746  " fill-rule="nonzero" fill="#797979" stroke="none" />
</svg>