<?xml version="1.0" encoding="utf-8"?>
<svg version="1.1" xmlns:xlink="http://www.w3.org/1999/xlink" width="12px" height="12px" viewBox="960 1970  12 12" xmlns="http://www.w3.org/2000/svg">
  <path d="M 966 1970  C 969.36 1970  972 1972.64  972 1976  C 972 1979.36  969.36 1982  966 1982  C 962.64 1982  960 1979.36  960 1976  C 960 1972.64  962.64 1970  966 1970  Z " fill-rule="nonzero" fill="#ffffff" stroke="none" />
  <path d="M 966 1970.5  C 969.08 1970.5  971.5 1972.92  971.5 1976  C 971.5 1979.08  969.08 1981.5  966 1981.5  C 962.92 1981.5  960.5 1979.08  960.5 1976  C 960.5 1972.92  962.92 1970.5  966 1970.5  Z " stroke-width="1" stroke="#797979" fill="none" />
  <path d="M 966 1979  C 964.32 1979  963 1977.68  963 1976  C 963 1974.32  964.32 1973  966 1973  C 967.68 1973  969 1974.32  969 1976  C 969 1977.68  967.68 1979  966 1979  " fill-rule="nonzero" fill="#797979" stroke="none" />
</svg>