<?xml version="1.0" encoding="utf-8"?>
<svg version="1.1" xmlns:xlink="http://www.w3.org/1999/xlink" width="12px" height="12px" viewBox="1293 1738  12 12" xmlns="http://www.w3.org/2000/svg">
  <path d="M 1299 1738  C 1302.36 1738  1305 1740.64  1305 1744  C 1305 1747.36  1302.36 1750  1299 1750  C 1295.64 1750  1293 1747.36  1293 1744  C 1293 1740.64  1295.64 1738  1299 1738  Z " fill-rule="nonzero" fill="#f0f0f0" stroke="none" />
  <path d="M 1299 1738.5  C 1302.08 1738.5  1304.5 1740.92  1304.5 1744  C 1304.5 1747.08  1302.08 1749.5  1299 1749.5  C 1295.92 1749.5  1293.5 1747.08  1293.5 1744  C 1293.5 1740.92  1295.92 1738.5  1299 1738.5  Z " stroke-width="1" stroke="#797979" fill="none" />
  <path d="M 1299 1747  C 1297.32 1747  1296 1745.68  1296 1744  C 1296 1742.32  1297.32 1741  1299 1741  C 1300.68 1741  1302 1742.32  1302 1744  C 1302 1745.68  1300.68 1747  1299 1747  " fill-rule="nonzero" fill="#797979" stroke="none" />
</svg>