<?xml version="1.0" encoding="utf-8"?>
<svg version="1.1" xmlns:xlink="http://www.w3.org/1999/xlink" width="12px" height="12px" viewBox="1042 1970  12 12" xmlns="http://www.w3.org/2000/svg">
  <path d="M 1048 1970  C 1051.36 1970  1054 1972.64  1054 1976  C 1054 1979.36  1051.36 1982  1048 1982  C 1044.64 1982  1042 1979.36  1042 1976  C 1042 1972.64  1044.64 1970  1048 1970  Z " fill-rule="nonzero" fill="#ffffff" stroke="none" />
  <path d="M 1048 1970.5  C 1051.08 1970.5  1053.5 1972.92  1053.5 1976  C 1053.5 1979.08  1051.08 1981.5  1048 1981.5  C 1044.92 1981.5  1042.5 1979.08  1042.5 1976  C 1042.5 1972.92  1044.92 1970.5  1048 1970.5  Z " stroke-width="1" stroke="#797979" fill="none" />
  <path d="M 1048 1979  C 1046.32 1979  1045 1977.68  1045 1976  C 1045 1974.32  1046.32 1973  1048 1973  C 1049.68 1973  1051 1974.32  1051 1976  C 1051 1977.68  1049.68 1979  1048 1979  " fill-rule="nonzero" fill="#797979" stroke="none" />
</svg>