<?xml version="1.0" encoding="utf-8"?>
<svg version="1.1" xmlns:xlink="http://www.w3.org/1999/xlink" width="12px" height="12px" viewBox="1211 1738  12 12" xmlns="http://www.w3.org/2000/svg">
  <path d="M 1217 1738  C 1220.36 1738  1223 1740.64  1223 1744  C 1223 1747.36  1220.36 1750  1217 1750  C 1213.64 1750  1211 1747.36  1211 1744  C 1211 1740.64  1213.64 1738  1217 1738  Z " fill-rule="nonzero" fill="#f0f0f0" stroke="none" />
  <path d="M 1217 1738.5  C 1220.08 1738.5  1222.5 1740.92  1222.5 1744  C 1222.5 1747.08  1220.08 1749.5  1217 1749.5  C 1213.92 1749.5  1211.5 1747.08  1211.5 1744  C 1211.5 1740.92  1213.92 1738.5  1217 1738.5  Z " stroke-width="1" stroke="#797979" fill="none" />
  <path d="M 1217 1747  C 1215.32 1747  1214 1745.68  1214 1744  C 1214 1742.32  1215.32 1741  1217 1741  C 1218.68 1741  1220 1742.32  1220 1744  C 1220 1745.68  1218.68 1747  1217 1747  " fill-rule="nonzero" fill="#797979" stroke="none" />
</svg>