<?xml version="1.0" encoding="utf-8"?>
<svg version="1.1" xmlns:xlink="http://www.w3.org/1999/xlink" width="12px" height="12px" viewBox="686 1875  12 12" xmlns="http://www.w3.org/2000/svg">
  <path d="M 692 1875  C 695.36 1875  698 1877.64  698 1881  C 698 1884.36  695.36 1887  692 1887  C 688.64 1887  686 1884.36  686 1881  C 686 1877.64  688.64 1875  692 1875  Z " fill-rule="nonzero" fill="#f0f0f0" stroke="none" />
  <path d="M 692 1875.5  C 695.08 1875.5  697.5 1877.92  697.5 1881  C 697.5 1884.08  695.08 1886.5  692 1886.5  C 688.92 1886.5  686.5 1884.08  686.5 1881  C 686.5 1877.92  688.92 1875.5  692 1875.5  Z " stroke-width="1" stroke="#797979" fill="none" />
  <path d="M 692 1884  C 690.32 1884  689 1882.68  689 1881  C 689 1879.32  690.32 1878  692 1878  C 693.68 1878  695 1879.32  695 1881  C 695 1882.68  693.68 1884  692 1884  " fill-rule="nonzero" fill="#797979" stroke="none" />
</svg>