<?xml version="1.0" encoding="utf-8"?>
<svg version="1.1" xmlns:xlink="http://www.w3.org/1999/xlink" width="12px" height="12px" viewBox="960 2092  12 12" xmlns="http://www.w3.org/2000/svg">
  <path d="M 966 2092  C 969.36 2092  972 2094.64  972 2098  C 972 2101.36  969.36 2104  966 2104  C 962.64 2104  960 2101.36  960 2098  C 960 2094.64  962.64 2092  966 2092  Z " fill-rule="nonzero" fill="#f0f0f0" stroke="none" />
  <path d="M 966 2092.5  C 969.08 2092.5  971.5 2094.92  971.5 2098  C 971.5 2101.08  969.08 2103.5  966 2103.5  C 962.92 2103.5  960.5 2101.08  960.5 2098  C 960.5 2094.92  962.92 2092.5  966 2092.5  Z " stroke-width="1" stroke="#797979" fill="none" />
  <path d="M 966 2101  C 964.32 2101  963 2099.68  963 2098  C 963 2096.32  964.32 2095  966 2095  C 967.68 2095  969 2096.32  969 2098  C 969 2099.68  967.68 2101  966 2101  " fill-rule="nonzero" fill="#797979" stroke="none" />
</svg>