<?xml version="1.0" encoding="utf-8"?>
<svg version="1.1" xmlns:xlink="http://www.w3.org/1999/xlink" width="12px" height="12px" viewBox="768 1875  12 12" xmlns="http://www.w3.org/2000/svg">
  <path d="M 774 1875  C 777.36 1875  780 1877.64  780 1881  C 780 1884.36  777.36 1887  774 1887  C 770.64 1887  768 1884.36  768 1881  C 768 1877.64  770.64 1875  774 1875  Z " fill-rule="nonzero" fill="#ffffff" stroke="none" />
  <path d="M 774 1875.5  C 777.08 1875.5  779.5 1877.92  779.5 1881  C 779.5 1884.08  777.08 1886.5  774 1886.5  C 770.92 1886.5  768.5 1884.08  768.5 1881  C 768.5 1877.92  770.92 1875.5  774 1875.5  Z " stroke-width="1" stroke="#797979" fill="none" />
  <path d="M 774 1884  C 772.32 1884  771 1882.68  771 1881  C 771 1879.32  772.32 1878  774 1878  C 775.68 1878  777 1879.32  777 1881  C 777 1882.68  775.68 1884  774 1884  " fill-rule="nonzero" fill="#797979" stroke="none" />
</svg>