<?xml version="1.0" encoding="utf-8"?>
<svg version="1.1" xmlns:xlink="http://www.w3.org/1999/xlink" width="12px" height="12px" viewBox="1042 2092  12 12" xmlns="http://www.w3.org/2000/svg">
  <path d="M 1048 2092  C 1051.36 2092  1054 2094.64  1054 2098  C 1054 2101.36  1051.36 2104  1048 2104  C 1044.64 2104  1042 2101.36  1042 2098  C 1042 2094.64  1044.64 2092  1048 2092  Z " fill-rule="nonzero" fill="#ffffff" stroke="none" />
  <path d="M 1048 2092.5  C 1051.08 2092.5  1053.5 2094.92  1053.5 2098  C 1053.5 2101.08  1051.08 2103.5  1048 2103.5  C 1044.92 2103.5  1042.5 2101.08  1042.5 2098  C 1042.5 2094.92  1044.92 2092.5  1048 2092.5  Z " stroke-width="1" stroke="#797979" fill="none" />
  <path d="M 1048 2101  C 1046.32 2101  1045 2099.68  1045 2098  C 1045 2096.32  1046.32 2095  1048 2095  C 1049.68 2095  1051 2096.32  1051 2098  C 1051 2099.68  1049.68 2101  1048 2101  " fill-rule="nonzero" fill="#797979" stroke="none" />
</svg>