<?xml version="1.0" encoding="utf-8"?>
<svg version="1.1" xmlns:xlink="http://www.w3.org/1999/xlink" width="12px" height="12px" viewBox="962 1959  12 12" xmlns="http://www.w3.org/2000/svg">
  <path d="M 968 1959  C 971.36 1959  974 1961.64  974 1965  C 974 1968.36  971.36 1971  968 1971  C 964.64 1971  962 1968.36  962 1965  C 962 1961.64  964.64 1959  968 1959  Z " fill-rule="nonzero" fill="#f0f0f0" stroke="none" />
  <path d="M 968 1959.5  C 971.08 1959.5  973.5 1961.92  973.5 1965  C 973.5 1968.08  971.08 1970.5  968 1970.5  C 964.92 1970.5  962.5 1968.08  962.5 1965  C 962.5 1961.92  964.92 1959.5  968 1959.5  Z " stroke-width="1" stroke="#797979" fill="none" />
  <path d="M 968 1968  C 966.32 1968  965 1966.68  965 1965  C 965 1963.32  966.32 1962  968 1962  C 969.68 1962  971 1963.32  971 1965  C 971 1966.68  969.68 1968  968 1968  " fill-rule="nonzero" fill="#797979" stroke="none" />
</svg>