<?xml version="1.0" encoding="utf-8"?>
<svg version="1.1" xmlns:xlink="http://www.w3.org/1999/xlink" width="12px" height="12px" viewBox="1274 2039  12 12" xmlns="http://www.w3.org/2000/svg">
  <path d="M 1280 2039  C 1283.36 2039  1286 2041.64  1286 2045  C 1286 2048.36  1283.36 2051  1280 2051  C 1276.64 2051  1274 2048.36  1274 2045  C 1274 2041.64  1276.64 2039  1280 2039  Z " fill-rule="nonzero" fill="#f0f0f0" stroke="none" />
  <path d="M 1280 2039.5  C 1283.08 2039.5  1285.5 2041.92  1285.5 2045  C 1285.5 2048.08  1283.08 2050.5  1280 2050.5  C 1276.92 2050.5  1274.5 2048.08  1274.5 2045  C 1274.5 2041.92  1276.92 2039.5  1280 2039.5  Z " stroke-width="1" stroke="#797979" fill="none" />
  <path d="M 1280 2048  C 1278.32 2048  1277 2046.68  1277 2045  C 1277 2043.32  1278.32 2042  1280 2042  C 1281.68 2042  1283 2043.32  1283 2045  C 1283 2046.68  1281.68 2048  1280 2048  " fill-rule="nonzero" fill="#797979" stroke="none" />
</svg>