<?xml version="1.0" encoding="utf-8"?>
<svg version="1.1" xmlns:xlink="http://www.w3.org/1999/xlink" width="12px" height="12px" viewBox="1274 2161  12 12" xmlns="http://www.w3.org/2000/svg">
  <path d="M 1280 2161  C 1283.36 2161  1286 2163.64  1286 2167  C 1286 2170.36  1283.36 2173  1280 2173  C 1276.64 2173  1274 2170.36  1274 2167  C 1274 2163.64  1276.64 2161  1280 2161  Z " fill-rule="nonzero" fill="#f0f0f0" stroke="none" />
  <path d="M 1280 2161.5  C 1283.08 2161.5  1285.5 2163.92  1285.5 2167  C 1285.5 2170.08  1283.08 2172.5  1280 2172.5  C 1276.92 2172.5  1274.5 2170.08  1274.5 2167  C 1274.5 2163.92  1276.92 2161.5  1280 2161.5  Z " stroke-width="1" stroke="#797979" fill="none" />
  <path d="M 1280 2170  C 1278.32 2170  1277 2168.68  1277 2167  C 1277 2165.32  1278.32 2164  1280 2164  C 1281.68 2164  1283 2165.32  1283 2167  C 1283 2168.68  1281.68 2170  1280 2170  " fill-rule="nonzero" fill="#797979" stroke="none" />
</svg>