<?xml version="1.0" encoding="utf-8"?>
<svg version="1.1" xmlns:xlink="http://www.w3.org/1999/xlink" width="12px" height="12px" viewBox="458 2352  12 12" xmlns="http://www.w3.org/2000/svg">
  <path d="M 464 2352  C 467.36 2352  470 2354.64  470 2358  C 470 2361.36  467.36 2364  464 2364  C 460.64 2364  458 2361.36  458 2358  C 458 2354.64  460.64 2352  464 2352  Z " fill-rule="nonzero" fill="#ffffff" stroke="none" />
  <path d="M 464 2352.5  C 467.08 2352.5  469.5 2354.92  469.5 2358  C 469.5 2361.08  467.08 2363.5  464 2363.5  C 460.92 2363.5  458.5 2361.08  458.5 2358  C 458.5 2354.92  460.92 2352.5  464 2352.5  Z " stroke-width="1" stroke="#797979" fill="none" />
  <path d="M 464 2361  C 462.32 2361  461 2359.68  461 2358  C 461 2356.32  462.32 2355  464 2355  C 465.68 2355  467 2356.32  467 2358  C 467 2359.68  465.68 2361  464 2361  " fill-rule="nonzero" fill="#797979" stroke="none" />
</svg>