<?xml version="1.0" encoding="utf-8"?>
<svg version="1.1" xmlns:xlink="http://www.w3.org/1999/xlink" width="12px" height="12px" viewBox="1192 2161  12 12" xmlns="http://www.w3.org/2000/svg">
  <path d="M 1198 2161  C 1201.36 2161  1204 2163.64  1204 2167  C 1204 2170.36  1201.36 2173  1198 2173  C 1194.64 2173  1192 2170.36  1192 2167  C 1192 2163.64  1194.64 2161  1198 2161  Z " fill-rule="nonzero" fill="#f0f0f0" stroke="none" />
  <path d="M 1198 2161.5  C 1201.08 2161.5  1203.5 2163.92  1203.5 2167  C 1203.5 2170.08  1201.08 2172.5  1198 2172.5  C 1194.92 2172.5  1192.5 2170.08  1192.5 2167  C 1192.5 2163.92  1194.92 2161.5  1198 2161.5  Z " stroke-width="1" stroke="#797979" fill="none" />
  <path d="M 1198 2170  C 1196.32 2170  1195 2168.68  1195 2167  C 1195 2165.32  1196.32 2164  1198 2164  C 1199.68 2164  1201 2165.32  1201 2167  C 1201 2168.68  1199.68 2170  1198 2170  " fill-rule="nonzero" fill="#797979" stroke="none" />
</svg>