<?xml version="1.0" encoding="utf-8"?>
<svg version="1.1" xmlns:xlink="http://www.w3.org/1999/xlink" width="12px" height="12px" viewBox="542 2219  12 12" xmlns="http://www.w3.org/2000/svg">
  <path d="M 548 2219  C 551.36 2219  554 2221.64  554 2225  C 554 2228.36  551.36 2231  548 2231  C 544.64 2231  542 2228.36  542 2225  C 542 2221.64  544.64 2219  548 2219  Z " fill-rule="nonzero" fill="#f0f0f0" stroke="none" />
  <path d="M 548 2219.5  C 551.08 2219.5  553.5 2221.92  553.5 2225  C 553.5 2228.08  551.08 2230.5  548 2230.5  C 544.92 2230.5  542.5 2228.08  542.5 2225  C 542.5 2221.92  544.92 2219.5  548 2219.5  Z " stroke-width="1" stroke="#797979" fill="none" />
  <path d="M 548 2228  C 546.32 2228  545 2226.68  545 2225  C 545 2223.32  546.32 2222  548 2222  C 549.68 2222  551 2223.32  551 2225  C 551 2226.68  549.68 2228  548 2228  " fill-rule="nonzero" fill="#797979" stroke="none" />
</svg>