<?xml version="1.0" encoding="utf-8"?>
<svg version="1.1" xmlns:xlink="http://www.w3.org/1999/xlink" width="12px" height="12px" viewBox="690 2421  12 12" xmlns="http://www.w3.org/2000/svg">
  <path d="M 696 2421  C 699.36 2421  702 2423.64  702 2427  C 702 2430.36  699.36 2433  696 2433  C 692.64 2433  690 2430.36  690 2427  C 690 2423.64  692.64 2421  696 2421  Z " fill-rule="nonzero" fill="#ffffff" stroke="none" />
  <path d="M 696 2421.5  C 699.08 2421.5  701.5 2423.92  701.5 2427  C 701.5 2430.08  699.08 2432.5  696 2432.5  C 692.92 2432.5  690.5 2430.08  690.5 2427  C 690.5 2423.92  692.92 2421.5  696 2421.5  Z " stroke-width="1" stroke="#797979" fill="none" />
  <path d="M 696 2430  C 694.32 2430  693 2428.68  693 2427  C 693 2425.32  694.32 2424  696 2424  C 697.68 2424  699 2425.32  699 2427  C 699 2428.68  697.68 2430  696 2430  " fill-rule="nonzero" fill="#797979" stroke="none" />
</svg>