<?xml version="1.0" encoding="utf-8"?>
<svg version="1.1" xmlns:xlink="http://www.w3.org/1999/xlink" width="12px" height="12px" viewBox="772 2421  12 12" xmlns="http://www.w3.org/2000/svg">
  <path d="M 778 2421  C 781.36 2421  784 2423.64  784 2427  C 784 2430.36  781.36 2433  778 2433  C 774.64 2433  772 2430.36  772 2427  C 772 2423.64  774.64 2421  778 2421  Z " fill-rule="nonzero" fill="#f0f0f0" stroke="none" />
  <path d="M 778 2421.5  C 781.08 2421.5  783.5 2423.92  783.5 2427  C 783.5 2430.08  781.08 2432.5  778 2432.5  C 774.92 2432.5  772.5 2430.08  772.5 2427  C 772.5 2423.92  774.92 2421.5  778 2421.5  Z " stroke-width="1" stroke="#797979" fill="none" />
  <path d="M 778 2430  C 776.32 2430  775 2428.68  775 2427  C 775 2425.32  776.32 2424  778 2424  C 779.68 2424  781 2425.32  781 2427  C 781 2428.68  779.68 2430  778 2430  " fill-rule="nonzero" fill="#797979" stroke="none" />
</svg>