<?xml version="1.0" encoding="utf-8"?>
<svg version="1.1" xmlns:xlink="http://www.w3.org/1999/xlink" width="12px" height="12px" viewBox="138 945  12 12" xmlns="http://www.w3.org/2000/svg">
  <path d="M 144 945  C 147.36 945  150 947.64  150 951  C 150 954.36  147.36 957  144 957  C 140.64 957  138 954.36  138 951  C 138 947.64  140.64 945  144 945  Z " fill-rule="nonzero" fill="#ffffff" stroke="none" />
  <path d="M 144 945.5  C 147.08 945.5  149.5 947.92  149.5 951  C 149.5 954.08  147.08 956.5  144 956.5  C 140.92 956.5  138.5 954.08  138.5 951  C 138.5 947.92  140.92 945.5  144 945.5  Z " stroke-width="1" stroke="#797979" fill="none" />
  <path d="M 144 954  C 142.32 954  141 952.68  141 951  C 141 949.32  142.32 948  144 948  C 145.68 948  147 949.32  147 951  C 147 952.68  145.68 954  144 954  " fill-rule="nonzero" fill="#797979" stroke="none" />
</svg>