<?xml version="1.0" encoding="utf-8"?>
<svg version="1.1" xmlns:xlink="http://www.w3.org/1999/xlink" width="12px" height="12px" viewBox="138 856  12 12" xmlns="http://www.w3.org/2000/svg">
  <path d="M 144 856  C 147.36 856  150 858.64  150 862  C 150 865.36  147.36 868  144 868  C 140.64 868  138 865.36  138 862  C 138 858.64  140.64 856  144 856  Z " fill-rule="nonzero" fill="#f0f0f0" stroke="none" />
  <path d="M 144 856.5  C 147.08 856.5  149.5 858.92  149.5 862  C 149.5 865.08  147.08 867.5  144 867.5  C 140.92 867.5  138.5 865.08  138.5 862  C 138.5 858.92  140.92 856.5  144 856.5  Z " stroke-width="1" stroke="#797979" fill="none" />
  <path d="M 144 865  C 142.32 865  141 863.68  141 862  C 141 860.32  142.32 859  144 859  C 145.68 859  147 860.32  147 862  C 147 863.68  145.68 865  144 865  " fill-rule="nonzero" fill="#797979" stroke="none" />
</svg>